<?xml version="1.0" encoding="us-ascii" standalone="no"?><svg xmlns="http://www.w3.org/2000/svg" xmlns:xlink="http://www.w3.org/1999/xlink" contentStyleType="text/css" height="868px" preserveAspectRatio="none" style="width:667px;height:868px;background:#FFFFFF;" version="1.1" viewBox="0 0 667 868" width="667px" zoomAndPan="magnify"><defs/><g><!--cluster Modul rozvrhy--><g id="cluster_Modul rozvrhy"><path d="M181.5,6 L297.5,6 A3.75,3.75 0 0 1 300,8.5 L307,28.2969 L549.5,28.2969 A2.5,2.5 0 0 1 552,30.7969 L552,858.5 A2.5,2.5 0 0 1 549.5,861 L181.5,861 A2.5,2.5 0 0 1 179,858.5 L179,8.5 A2.5,2.5 0 0 1 181.5,6 " fill="none" style="stroke:#000000;stroke-width:1.5;"/><line style="stroke:#000000;stroke-width:1.5;" x1="179" x2="307" y1="28.2969" y2="28.2969"/><text fill="#000000" font-family="sans-serif" font-size="14" font-weight="bold" lengthAdjust="spacing" textLength="115" x="183" y="20.9951">Modul rozvrhy</text></g><!--cluster Evidence u?eben a m?st--><g id="cluster_Evidence u&#269;eben a m&#237;st"><path d="M205.5,49 L395.5,49 A3.75,3.75 0 0 1 398,51.5 L405,71.2969 L525.5,71.2969 A2.5,2.5 0 0 1 528,73.7969 L528,834.5 A2.5,2.5 0 0 1 525.5,837 L205.5,837 A2.5,2.5 0 0 1 203,834.5 L203,51.5 A2.5,2.5 0 0 1 205.5,49 " fill="none" style="stroke:#000000;stroke-width:1.5;"/><line style="stroke:#000000;stroke-width:1.5;" x1="203" x2="405" y1="71.2969" y2="71.2969"/><text fill="#000000" font-family="sans-serif" font-size="14" font-weight="bold" lengthAdjust="spacing" textLength="189" x="207" y="63.9951">Evidence u&#269;eben a m&#237;st</text></g><!--cluster List evidence u?eben--><g id="cluster_List evidence u&#269;eben"><path d="M229.5,92 L398.5,92 A3.75,3.75 0 0 1 401,94.5 L408,114.2969 L501.5,114.2969 A2.5,2.5 0 0 1 504,116.7969 L504,465.5 A2.5,2.5 0 0 1 501.5,468 L229.5,468 A2.5,2.5 0 0 1 227,465.5 L227,94.5 A2.5,2.5 0 0 1 229.5,92 " fill="none" style="stroke:#000000;stroke-width:1.5;"/><line style="stroke:#000000;stroke-width:1.5;" x1="227" x2="408" y1="114.2969" y2="114.2969"/><text fill="#000000" font-family="sans-serif" font-size="14" font-weight="bold" lengthAdjust="spacing" textLength="168" x="231" y="106.9951">List evidence u&#269;eben</text></g><!--cluster List evidence m?sta--><g id="cluster_List evidence m&#237;sta"><path d="M252,492 L411,492 A3.75,3.75 0 0 1 413.5,494.5 L420.5,514.2969 L479,514.2969 A2.5,2.5 0 0 1 481.5,516.7969 L481.5,810.5 A2.5,2.5 0 0 1 479,813 L252,813 A2.5,2.5 0 0 1 249.5,810.5 L249.5,494.5 A2.5,2.5 0 0 1 252,492 " fill="none" style="stroke:#000000;stroke-width:1.5;"/><line style="stroke:#000000;stroke-width:1.5;" x1="249.5" x2="420.5" y1="514.2969" y2="514.2969"/><text fill="#000000" font-family="sans-serif" font-size="14" font-weight="bold" lengthAdjust="spacing" textLength="158" x="253.5" y="506.9951">List evidence m&#237;sta</text></g><g id="elem_UC1"><ellipse cx="365.4911" cy="239.8982" fill="#F1F1F1" rx="104.9911" ry="23.3982" style="stroke:#181818;stroke-width:0.5;"/><text fill="#000000" font-family="sans-serif" font-size="14" lengthAdjust="spacing" textLength="175" x="277.9911" y="242.7449">Evidovat u&#269;ebnu k m&#237;stu</text></g><g id="elem_UC3"><ellipse cx="365.6802" cy="341.836" fill="#F1F1F1" rx="122.1802" ry="26.836" style="stroke:#181818;stroke-width:0.5;"/><text fill="#000000" font-family="sans-serif" font-size="14" lengthAdjust="spacing" textLength="212" x="259.6802" y="344.6827">Vytvo&#345;it nov&#253; z&#225;znam u&#269;ebny</text></g><g id="elem_UC2"><ellipse cx="365.6502" cy="153.93" fill="#F1F1F1" rx="122.6502" ry="26.93" style="stroke:#181818;stroke-width:0.5;"/><text fill="#000000" font-family="sans-serif" font-size="14" lengthAdjust="spacing" textLength="213" x="259.1502" y="156.7767">Specifikovat kapacitu u&#269;ebny</text></g><g id="elem_UC4"><ellipse cx="365.3679" cy="428.1736" fill="#F1F1F1" rx="106.3679" ry="23.6736" style="stroke:#181818;stroke-width:0.5;"/><text fill="#000000" font-family="sans-serif" font-size="14" lengthAdjust="spacing" textLength="178" x="276.3679" y="431.0203">Zobrazit seznam u&#269;eben</text></g><g id="elem_UC5"><ellipse cx="365.5567" cy="548.0113" fill="#F1F1F1" rx="90.5567" ry="20.5113" style="stroke:#181818;stroke-width:0.5;"/><text fill="#000000" font-family="sans-serif" font-size="14" lengthAdjust="spacing" textLength="143" x="294.0567" y="550.858">Vytvo&#345;it nov&#233; m&#237;sto</text></g><g id="elem_UC6"><ellipse cx="365.4738" cy="625.8948" fill="#F1F1F1" rx="99.9738" ry="22.3948" style="stroke:#181818;stroke-width:0.5;"/><text fill="#000000" font-family="sans-serif" font-size="14" lengthAdjust="spacing" textLength="164" x="283.4738" y="628.7414">Upravit exisutj&#237;c&#237; m&#237;sto</text></g><g id="elem_UC7"><ellipse cx="365.3073" cy="700.8615" fill="#F1F1F1" rx="72.3073" ry="16.8615" style="stroke:#181818;stroke-width:0.5;"/><text fill="#000000" font-family="sans-serif" font-size="14" lengthAdjust="spacing" textLength="99" x="312.8073" y="704.609">Smazat m&#237;sto</text></g><g id="elem_UC8"><ellipse cx="365.3093" cy="774.7619" fill="#F1F1F1" rx="96.8093" ry="21.7619" style="stroke:#181818;stroke-width:0.5;"/><text fill="#000000" font-family="sans-serif" font-size="14" lengthAdjust="spacing" textLength="157" x="286.8093" y="777.6085">Zobrazit seznam m&#237;st</text></g><!--entity D?kan?t--><g id="elem_D&#283;kan&#225;t"><ellipse cx="629.5" cy="428.5" fill="#F1F1F1" rx="8" ry="8" style="stroke:#181818;stroke-width:0.5;"/><path d="M629.5,436.5 L629.5,463.5 M616.5,444.5 L642.5,444.5 M629.5,463.5 L616.5,478.5 M629.5,463.5 L642.5,478.5 " fill="none" style="stroke:#181818;stroke-width:0.5;"/><text fill="#000000" font-family="sans-serif" font-size="14" lengthAdjust="spacing" textLength="61" x="599" y="492.9951">D&#283;kan&#225;t</text></g><!--entity U?ivatel--><g id="elem_U&#382;ivatel"><ellipse cx="34.5" cy="534.5" fill="#F1F1F1" rx="8" ry="8" style="stroke:#181818;stroke-width:0.5;"/><path d="M34.5,542.5 L34.5,569.5 M21.5,550.5 L47.5,550.5 M34.5,569.5 L21.5,584.5 M34.5,569.5 L47.5,584.5 " fill="none" style="stroke:#181818;stroke-width:0.5;"/><text fill="#000000" font-family="sans-serif" font-size="14" lengthAdjust="spacing" textLength="57" x="6" y="598.9951">U&#382;ivatel</text></g><!--reverse link UC3 to D?kan?t--><g id="link_UC3_D&#283;kan&#225;t"><path d="M477.148,356.314 C505.376,362.974 534.83,372.725 560,387 C574.601,395.281 588.061,407.626 599.115,419.711 " fill="none" id="UC3-backto-D&#283;kan&#225;t" style="stroke:#181818;stroke-width:1.0;"/><polygon fill="#181818" points="472.262,355.189,480.1356,361.1056,477.1346,356.3104,481.9298,353.3094,472.262,355.189" style="stroke:#181818;stroke-width:1.0;"/></g><!--reverse link UC2 to D?kan?t--><g id="link_UC2_D&#283;kan&#225;t"><path d="M489.153,161.867 C515.253,168.798 540.718,180.289 560,199 C591.46,229.528 613.729,355.523 623.286,419.843 " fill="none" id="UC2-backto-D&#283;kan&#225;t" style="stroke:#181818;stroke-width:1.0;"/><polygon fill="#181818" points="484.274,160.625,492.0099,166.7206,489.1196,161.8578,493.9824,158.9676,484.274,160.625" style="stroke:#181818;stroke-width:1.0;"/></g><!--reverse link UC5 to D?kan?t--><g id="link_UC5_D&#283;kan&#225;t"><path d="M420.898,529.314 C474.843,510.783 555.506,483.074 598.685,468.242 " fill="none" id="UC5-backto-D&#283;kan&#225;t" style="stroke:#181818;stroke-width:1.0;"/><polygon fill="#181818" points="416.088,530.966,425.8995,531.8225,420.8164,529.3404,423.2985,524.2572,416.088,530.966" style="stroke:#181818;stroke-width:1.0;"/></g><!--reverse link UC6 to D?kan?t--><g id="link_UC6_D&#283;kan&#225;t"><path d="M469.41,621.483 C500.903,615.919 534.044,605.391 560,586 C589.581,563.901 607.738,525.176 617.86,496.092 " fill="none" id="UC6-backto-D&#283;kan&#225;t" style="stroke:#181818;stroke-width:1.0;"/><polygon fill="#181818" points="464.372,622.334,473.9126,624.7789,469.3021,621.5011,472.58,616.8907,464.372,622.334" style="stroke:#181818;stroke-width:1.0;"/></g><!--reverse link UC7 to D?kan?t--><g id="link_UC7_D&#283;kan&#225;t"><path d="M441.457,704.879 C480.992,702.989 527.828,693.979 560,666 C609.487,622.963 623.384,543.484 627.186,496.215 " fill="none" id="UC7-backto-D&#283;kan&#225;t" style="stroke:#181818;stroke-width:1.0;"/><polygon fill="#181818" points="436.178,705.091,445.3318,708.7252,441.1739,704.8896,445.0095,700.7317,436.178,705.091" style="stroke:#181818;stroke-width:1.0;"/></g><!--reverse link UC1 to D?kan?t--><g id="link_UC1_D&#283;kan&#225;t"><path d="M464.8,251.623 C498.207,259.766 533.7,273.582 560,297 C595.957,329.017 613.648,383.105 621.907,419.661 " fill="none" id="UC1-backto-D&#283;kan&#225;t" style="stroke:#181818;stroke-width:1.0;"/><polygon fill="#181818" points="459.887,250.462,467.7257,256.4248,464.7529,251.6121,469.5657,248.6393,459.887,250.462" style="stroke:#181818;stroke-width:1.0;"/></g><!--link U?ivatel to UC4--><g id="link_U&#382;ivatel_UC4"><path d="M63.2668,552.522 C117.503,530.102 238.412,480.121 309.456,450.754 " fill="none" id="U&#382;ivatel-to-UC4" style="stroke:#181818;stroke-width:1.0;"/><polygon fill="#181818" points="314.483,448.676,304.6376,448.4169,309.8621,450.5858,307.6932,455.8103,314.483,448.676" style="stroke:#181818;stroke-width:1.0;"/></g><!--link U?ivatel to UC8--><g id="link_U&#382;ivatel_UC8"><path d="M54.8442,602.025 C77.2183,641.944 117.89,703.349 171,736 C199.265,753.377 233.829,763.188 265.883,768.671 " fill="none" id="U&#382;ivatel-to-UC8" style="stroke:#181818;stroke-width:1.0;"/><polygon fill="#181818" points="271.004,769.515,262.7739,764.1053,266.0705,768.7023,261.4735,771.9989,271.004,769.515" style="stroke:#181818;stroke-width:1.0;"/></g><!--link UC3 to UC2--><g id="link_UC3_UC2"><path d="M250.093,333.225 C180.315,322.069 108.905,296.779 132,239.5 C149.874,195.171 195.961,173.193 242.516,162.525 " fill="none" id="UC3-to-UC2" style="stroke:#181818;stroke-width:1.0;stroke-dasharray:7.0,7.0;"/><polygon fill="#181818" points="247.605,161.403,237.9552,159.433,242.7221,162.4787,239.6763,167.2456,247.605,161.403" style="stroke:#181818;stroke-width:1.0;"/><text fill="#000000" font-family="sans-serif" font-size="13" lengthAdjust="spacing" textLength="68" x="94" y="252.5669">&#171;includes&#187;</text></g><!--link UC3 to UC1--><g id="link_UC3_UC1"><path d="M365.5,314.934 C365.5,300.741 365.5,283.351 365.5,268.897 " fill="none" id="UC3-to-UC1" style="stroke:#181818;stroke-width:1.0;stroke-dasharray:7.0,7.0;"/><polygon fill="#181818" points="365.5,263.716,361.5,272.716,365.5,268.716,369.5,272.716,365.5,263.716" style="stroke:#181818;stroke-width:1.0;"/><text fill="#000000" font-family="sans-serif" font-size="13" lengthAdjust="spacing" textLength="68" x="320" y="293.8169">&#171;includes&#187;</text></g><!--SRC=[ZP9BJiCm48RtESMe-o2rq8TGrGsm0ma9bGMxgJDjJLAxYks81d443e1OTScYHu1DsdlX9kaZZmgyYEBVyyruVaz0OmrQGiWdKmqU3ubfBeNZ8DCoXElrfuyYMUfyFzpyy0Wr1OupH-RZXA1n9pqJG2ZZA9mk6l3gW5ttkzERY7ia685PlzE8123CafNIsy0qiX1zovK6AY6xdBjb535KUMvfhvC52WD-bjiq01KChvhrsED2HtBpmJK86INV42VBME0ipxB8uVDw-65EZ8-vdzRrqRh0jIcXhNhqIOv2Z6rPHOTws_PIw68FlVrfJDebdlIbsE1N5YxpEkrwPZWFCR84lN1bz7EoOicg27PE63B3s5fH2Et-pu1y45AaTzH-zhKss5U0lkiUZQ4rjwAqAqgdedGhIhEaEFlP1jSTf0zILdhPZSws_osuX7uVk621yKZ1O70uQrREVW40]--></g></svg>