<?xml version="1.0" encoding="us-ascii" standalone="no"?><svg xmlns="http://www.w3.org/2000/svg" xmlns:xlink="http://www.w3.org/1999/xlink" contentStyleType="text/css" height="789px" preserveAspectRatio="none" style="width:918px;height:789px;background:#FFFFFF;" version="1.1" viewBox="0 0 918 789" width="918px" zoomAndPan="magnify"><defs/><g><!--class User--><g id="elem_User"><rect codeLine="4" fill="#F1F1F1" height="113.1875" id="User" rx="2.5" ry="2.5" style="stroke:#181818;stroke-width:0.5;" width="93" x="359.5" y="7"/><ellipse cx="376.75" cy="23" fill="#A9DCDF" rx="11" ry="11" style="stroke:#181818;stroke-width:1.0;"/><path d="M378.8281,24.8125 L379.2188,25.7969 L378.8281,25.7969 C378.375,25.7969 378.2656,25.8125 378.1094,25.9219 C377.8594,26.0781 377.7031,26.3594 377.7031,26.6563 C377.7031,26.9219 377.8438,27.1719 378.0625,27.3281 C378.2031,27.4531 378.4063,27.5 378.8281,27.5 L381.1875,27.5 C381.5469,27.5 381.7656,27.4688 381.9063,27.375 C382.1563,27.2344 382.3125,26.9375 382.3125,26.6563 C382.3125,26.375 382.1719,26.125 381.9531,25.9688 C381.7813,25.8281 381.625,25.7969 381.1563,25.7969 L377.7656,17.5938 L374.0938,17.5938 C373.6406,17.5938 373.5156,17.6094 373.3594,17.7031 C373.1094,17.875 372.9531,18.1563 372.9531,18.4375 C372.9531,18.7188 373.0938,18.9688 373.3125,19.1406 C373.4844,19.25 373.6563,19.2813 374.0938,19.2813 L375.1719,19.2813 L372.5313,25.7969 C372.1094,25.7969 371.9531,25.8125 371.7969,25.9219 C371.5469,26.0781 371.3906,26.3594 371.3906,26.6563 C371.3906,27.2188 371.7656,27.5 372.5156,27.5 L374.7813,27.5 C375.1406,27.5 375.3594,27.4688 375.4844,27.375 C375.75,27.2344 375.8906,26.9375 375.8906,26.6563 C375.8906,26.375 375.7656,26.125 375.5469,25.9531 C375.375,25.8281 375.2344,25.7969 374.7813,25.7969 L374.3906,25.7969 L374.7813,24.8125 L378.8281,24.8125 Z M378.125,23.1094 L375.4531,23.1094 L376.7969,19.8438 L378.125,23.1094 Z " fill="#000000"/><text fill="#000000" font-family="sans-serif" font-size="14" font-style="italic" lengthAdjust="spacing" textLength="56" x="391.25" y="27.8467">U&#382;ivatel</text><line style="stroke:#181818;stroke-width:0.5;" x1="360.5" x2="451.5" y1="39" y2="39"/><text fill="#000000" font-family="sans-serif" font-size="14" lengthAdjust="spacing" textLength="81" x="365.5" y="55.9951">&#268;&#237;slo osoby</text><text fill="#000000" font-family="sans-serif" font-size="14" lengthAdjust="spacing" textLength="45" x="365.5" y="72.292">Jm&#233;no</text><text fill="#000000" font-family="sans-serif" font-size="14" lengthAdjust="spacing" textLength="59" x="365.5" y="88.5889">P&#345;&#237;jmen&#237;</text><text fill="#000000" font-family="sans-serif" font-size="14" lengthAdjust="spacing" textLength="14" x="365.5" y="104.8857">&#8942;</text><line style="stroke:#181818;stroke-width:0.5;" x1="360.5" x2="451.5" y1="112.1875" y2="112.1875"/></g><!--class Student--><g id="elem_Student"><rect codeLine="11" fill="#F1F1F1" height="64.2969" id="Student" rx="2.5" ry="2.5" style="stroke:#181818;stroke-width:0.5;" width="110" x="224" y="181"/><ellipse cx="248" cy="197" fill="#ADD1B2" rx="11" ry="11" style="stroke:#181818;stroke-width:1.0;"/><path d="M250.3438,192.6719 C249.4063,192.2344 248.8125,192.0938 247.9375,192.0938 C245.3125,192.0938 243.3125,194.1719 243.3125,196.8906 L243.3125,198.0156 C243.3125,200.5938 245.4219,202.4844 248.3125,202.4844 C249.5313,202.4844 250.6875,202.1875 251.4375,201.6406 C252.0156,201.2344 252.3438,200.7813 252.3438,200.3906 C252.3438,199.9375 251.9531,199.5469 251.4844,199.5469 C251.2656,199.5469 251.0625,199.625 250.875,199.8125 C250.4219,200.2969 250.4219,200.2969 250.2344,200.3906 C249.8125,200.6563 249.125,200.7813 248.3594,200.7813 C246.3125,200.7813 245.0156,199.6875 245.0156,197.9844 L245.0156,196.8906 C245.0156,195.1094 246.2656,193.7969 248,193.7969 C248.5781,193.7969 249.1875,193.9531 249.6563,194.2031 C250.1406,194.4844 250.3125,194.7031 250.4063,195.1094 C250.4688,195.5156 250.5,195.6406 250.6406,195.7656 C250.7813,195.9063 251.0156,196.0156 251.2344,196.0156 C251.5,196.0156 251.7656,195.875 251.9375,195.6563 C252.0469,195.5 252.0781,195.3125 252.0781,194.8906 L252.0781,193.4688 C252.0781,193.0313 252.0625,192.9063 251.9688,192.75 C251.8125,192.4844 251.5313,192.3438 251.2344,192.3438 C250.9375,192.3438 250.7344,192.4375 250.5156,192.75 L250.3438,192.6719 Z " fill="#000000"/><text fill="#000000" font-family="sans-serif" font-size="14" lengthAdjust="spacing" textLength="58" x="264" y="201.8467">Student</text><line style="stroke:#181818;stroke-width:0.5;" x1="225" x2="333" y1="213" y2="213"/><text fill="#000000" font-family="sans-serif" font-size="14" lengthAdjust="spacing" textLength="98" x="230" y="229.9951">Ro&#269;n&#237;k Studia</text><line style="stroke:#181818;stroke-width:0.5;" x1="225" x2="333" y1="237.2969" y2="237.2969"/></g><!--class Teacher--><g id="elem_Teacher"><rect codeLine="15" fill="#F1F1F1" height="48" id="Teacher" rx="2.5" ry="2.5" style="stroke:#181818;stroke-width:0.5;" width="73" x="369.5" y="189"/><ellipse cx="384.5" cy="205" fill="#ADD1B2" rx="11" ry="11" style="stroke:#181818;stroke-width:1.0;"/><path d="M386.8438,200.6719 C385.9063,200.2344 385.3125,200.0938 384.4375,200.0938 C381.8125,200.0938 379.8125,202.1719 379.8125,204.8906 L379.8125,206.0156 C379.8125,208.5938 381.9219,210.4844 384.8125,210.4844 C386.0313,210.4844 387.1875,210.1875 387.9375,209.6406 C388.5156,209.2344 388.8438,208.7813 388.8438,208.3906 C388.8438,207.9375 388.4531,207.5469 387.9844,207.5469 C387.7656,207.5469 387.5625,207.625 387.375,207.8125 C386.9219,208.2969 386.9219,208.2969 386.7344,208.3906 C386.3125,208.6563 385.625,208.7813 384.8594,208.7813 C382.8125,208.7813 381.5156,207.6875 381.5156,205.9844 L381.5156,204.8906 C381.5156,203.1094 382.7656,201.7969 384.5,201.7969 C385.0781,201.7969 385.6875,201.9531 386.1563,202.2031 C386.6406,202.4844 386.8125,202.7031 386.9063,203.1094 C386.9688,203.5156 387,203.6406 387.1406,203.7656 C387.2813,203.9063 387.5156,204.0156 387.7344,204.0156 C388,204.0156 388.2656,203.875 388.4375,203.6563 C388.5469,203.5 388.5781,203.3125 388.5781,202.8906 L388.5781,201.4688 C388.5781,201.0313 388.5625,200.9063 388.4688,200.75 C388.3125,200.4844 388.0313,200.3438 387.7344,200.3438 C387.4375,200.3438 387.2344,200.4375 387.0156,200.75 L386.8438,200.6719 Z " fill="#000000"/><text fill="#000000" font-family="sans-serif" font-size="14" lengthAdjust="spacing" textLength="41" x="398.5" y="209.8467">U&#269;itel</text><line style="stroke:#181818;stroke-width:0.5;" x1="370.5" x2="441.5" y1="221" y2="221"/><line style="stroke:#181818;stroke-width:0.5;" x1="370.5" x2="441.5" y1="229" y2="229"/></g><!--class SchManager--><g id="elem_SchManager"><rect codeLine="18" fill="#F1F1F1" height="48" id="SchManager" rx="2.5" ry="2.5" style="stroke:#181818;stroke-width:0.5;" width="196" x="478" y="189"/><ellipse cx="493" cy="205" fill="#ADD1B2" rx="11" ry="11" style="stroke:#181818;stroke-width:1.0;"/><path d="M495.3438,200.6719 C494.4063,200.2344 493.8125,200.0938 492.9375,200.0938 C490.3125,200.0938 488.3125,202.1719 488.3125,204.8906 L488.3125,206.0156 C488.3125,208.5938 490.4219,210.4844 493.3125,210.4844 C494.5313,210.4844 495.6875,210.1875 496.4375,209.6406 C497.0156,209.2344 497.3438,208.7813 497.3438,208.3906 C497.3438,207.9375 496.9531,207.5469 496.4844,207.5469 C496.2656,207.5469 496.0625,207.625 495.875,207.8125 C495.4219,208.2969 495.4219,208.2969 495.2344,208.3906 C494.8125,208.6563 494.125,208.7813 493.3594,208.7813 C491.3125,208.7813 490.0156,207.6875 490.0156,205.9844 L490.0156,204.8906 C490.0156,203.1094 491.2656,201.7969 493,201.7969 C493.5781,201.7969 494.1875,201.9531 494.6563,202.2031 C495.1406,202.4844 495.3125,202.7031 495.4063,203.1094 C495.4688,203.5156 495.5,203.6406 495.6406,203.7656 C495.7813,203.9063 496.0156,204.0156 496.2344,204.0156 C496.5,204.0156 496.7656,203.875 496.9375,203.6563 C497.0469,203.5 497.0781,203.3125 497.0781,202.8906 L497.0781,201.4688 C497.0781,201.0313 497.0625,200.9063 496.9688,200.75 C496.8125,200.4844 496.5313,200.3438 496.2344,200.3438 C495.9375,200.3438 495.7344,200.4375 495.5156,200.75 L495.3438,200.6719 Z " fill="#000000"/><text fill="#000000" font-family="sans-serif" font-size="14" lengthAdjust="spacing" textLength="164" x="507" y="209.8467">&#268;len rozvrhov&#233; komise</text><line style="stroke:#181818;stroke-width:0.5;" x1="479" x2="673" y1="221" y2="221"/><line style="stroke:#181818;stroke-width:0.5;" x1="479" x2="673" y1="229" y2="229"/></g><!--class SubjectType--><g id="elem_SubjectType"><rect codeLine="23" fill="#F1F1F1" height="113.1875" id="SubjectType" rx="2.5" ry="2.5" style="stroke:#181818;stroke-width:0.5;" width="196" x="35" y="330"/><ellipse cx="50" cy="346" fill="#EB937F" rx="11" ry="11" style="stroke:#181818;stroke-width:1.0;"/><path d="M48.7969,346.875 L50.25,346.875 L50.25,346.9844 C50.25,347.3906 50.2813,347.5469 50.3594,347.7031 C50.5156,347.9531 50.7969,348.1094 51.0938,348.1094 C51.3438,348.1094 51.6094,347.9688 51.7656,347.75 C51.8906,347.5938 51.9219,347.4375 51.9219,346.9844 L51.9219,345.0625 C51.9219,344.9063 51.9219,344.8594 51.9063,344.7031 C51.8438,344.2344 51.5313,343.9219 51.0781,343.9219 C50.8281,343.9219 50.5625,344.0625 50.3906,344.2813 C50.2813,344.4531 50.25,344.6094 50.25,345.0625 L50.25,345.1875 L48.7969,345.1875 L48.7969,342.7813 L52.7813,342.7813 L52.7813,343.6406 C52.7813,344.0469 52.8125,344.2188 52.8906,344.375 C53.0625,344.625 53.3438,344.7813 53.625,344.7813 C53.8906,344.7813 54.1563,344.6406 54.3281,344.4219 C54.4375,344.25 54.4688,344.1094 54.4688,343.6406 L54.4688,341.0938 L46.8438,341.0938 C46.4063,341.0938 46.2813,341.1094 46.125,341.2031 C45.875,341.3594 45.7188,341.6563 45.7188,341.9375 C45.7188,342.2188 45.8594,342.4688 46.0781,342.6406 C46.2344,342.75 46.4219,342.7813 46.8438,342.7813 L47.0938,342.7813 L47.0938,349.2969 L46.8438,349.2969 C46.4375,349.2969 46.2813,349.3125 46.125,349.4219 C45.875,349.5938 45.7188,349.8594 45.7188,350.1563 C45.7188,350.4219 45.8594,350.6719 46.0781,350.8281 C46.2188,350.9531 46.4531,351 46.8438,351 L54.8438,351 L54.8438,348.4219 C54.8438,347.9844 54.8125,347.8438 54.7344,347.6875 C54.5625,347.4375 54.2813,347.2813 54,347.2813 C53.7344,347.2813 53.4688,347.3906 53.2969,347.6406 C53.1875,347.7969 53.1563,347.9375 53.1563,348.4219 L53.1563,349.2969 L48.7969,349.2969 L48.7969,346.875 Z " fill="#000000"/><text fill="#000000" font-family="sans-serif" font-size="14" lengthAdjust="spacing" textLength="164" x="64" y="350.8467">Typ rozvrhov&#233;ho l&#237;stku</text><line style="stroke:#181818;stroke-width:0.5;" x1="36" x2="230" y1="362" y2="362"/><text fill="#000000" font-family="sans-serif" font-size="14" lengthAdjust="spacing" textLength="74" x="41" y="378.9951">P&#345;edn&#225;&#353;ka</text><text fill="#000000" font-family="sans-serif" font-size="14" lengthAdjust="spacing" textLength="52" x="41" y="395.292">Cvi&#269;en&#237;</text><text fill="#000000" font-family="sans-serif" font-size="14" lengthAdjust="spacing" textLength="59" x="41" y="411.5889">Semin&#225;&#345;</text><text fill="#000000" font-family="sans-serif" font-size="14" lengthAdjust="spacing" textLength="74" x="41" y="427.8857">Praktikum</text><line style="stroke:#181818;stroke-width:0.5;" x1="36" x2="230" y1="435.1875" y2="435.1875"/></g><!--class SemestrTime--><g id="elem_SemestrTime"><rect codeLine="30" fill="#F1F1F1" height="80.5938" id="SemestrTime" rx="2.5" ry="2.5" style="stroke:#181818;stroke-width:0.5;" width="156" x="7" y="702"/><ellipse cx="22" cy="718" fill="#EB937F" rx="11" ry="11" style="stroke:#181818;stroke-width:1.0;"/><path d="M20.7969,718.875 L22.25,718.875 L22.25,718.9844 C22.25,719.3906 22.2813,719.5469 22.3594,719.7031 C22.5156,719.9531 22.7969,720.1094 23.0938,720.1094 C23.3438,720.1094 23.6094,719.9688 23.7656,719.75 C23.8906,719.5938 23.9219,719.4375 23.9219,718.9844 L23.9219,717.0625 C23.9219,716.9063 23.9219,716.8594 23.9063,716.7031 C23.8438,716.2344 23.5313,715.9219 23.0781,715.9219 C22.8281,715.9219 22.5625,716.0625 22.3906,716.2813 C22.2813,716.4531 22.25,716.6094 22.25,717.0625 L22.25,717.1875 L20.7969,717.1875 L20.7969,714.7813 L24.7813,714.7813 L24.7813,715.6406 C24.7813,716.0469 24.8125,716.2188 24.8906,716.375 C25.0625,716.625 25.3438,716.7813 25.625,716.7813 C25.8906,716.7813 26.1563,716.6406 26.3281,716.4219 C26.4375,716.25 26.4688,716.1094 26.4688,715.6406 L26.4688,713.0938 L18.8438,713.0938 C18.4063,713.0938 18.2813,713.1094 18.125,713.2031 C17.875,713.3594 17.7188,713.6563 17.7188,713.9375 C17.7188,714.2188 17.8594,714.4688 18.0781,714.6406 C18.2344,714.75 18.4219,714.7813 18.8438,714.7813 L19.0938,714.7813 L19.0938,721.2969 L18.8438,721.2969 C18.4375,721.2969 18.2813,721.3125 18.125,721.4219 C17.875,721.5938 17.7188,721.8594 17.7188,722.1563 C17.7188,722.4219 17.8594,722.6719 18.0781,722.8281 C18.2188,722.9531 18.4531,723 18.8438,723 L26.8438,723 L26.8438,720.4219 C26.8438,719.9844 26.8125,719.8438 26.7344,719.6875 C26.5625,719.4375 26.2813,719.2813 26,719.2813 C25.7344,719.2813 25.4688,719.3906 25.2969,719.6406 C25.1875,719.7969 25.1563,719.9375 25.1563,720.4219 L25.1563,721.2969 L20.7969,721.2969 L20.7969,718.875 Z " fill="#000000"/><text fill="#000000" font-family="sans-serif" font-size="14" lengthAdjust="spacing" textLength="124" x="36" y="722.8467">Obdob&#237; semestru</text><line style="stroke:#181818;stroke-width:0.5;" x1="8" x2="162" y1="734" y2="734"/><text fill="#000000" font-family="sans-serif" font-size="14" lengthAdjust="spacing" textLength="41" x="13" y="750.9951">Zimn&#237;</text><text fill="#000000" font-family="sans-serif" font-size="14" lengthAdjust="spacing" textLength="37" x="13" y="767.292">Letn&#237;</text><line style="stroke:#181818;stroke-width:0.5;" x1="8" x2="162" y1="774.5938" y2="774.5938"/></g><!--class Semestr--><g id="elem_Semestr"><rect codeLine="35" fill="#F1F1F1" height="80.5938" id="Semestr" rx="2.5" ry="2.5" style="stroke:#181818;stroke-width:0.5;" width="93" x="198.5" y="702"/><ellipse cx="213.5" cy="718" fill="#ADD1B2" rx="11" ry="11" style="stroke:#181818;stroke-width:1.0;"/><path d="M215.8438,713.6719 C214.9063,713.2344 214.3125,713.0938 213.4375,713.0938 C210.8125,713.0938 208.8125,715.1719 208.8125,717.8906 L208.8125,719.0156 C208.8125,721.5938 210.9219,723.4844 213.8125,723.4844 C215.0313,723.4844 216.1875,723.1875 216.9375,722.6406 C217.5156,722.2344 217.8438,721.7813 217.8438,721.3906 C217.8438,720.9375 217.4531,720.5469 216.9844,720.5469 C216.7656,720.5469 216.5625,720.625 216.375,720.8125 C215.9219,721.2969 215.9219,721.2969 215.7344,721.3906 C215.3125,721.6563 214.625,721.7813 213.8594,721.7813 C211.8125,721.7813 210.5156,720.6875 210.5156,718.9844 L210.5156,717.8906 C210.5156,716.1094 211.7656,714.7969 213.5,714.7969 C214.0781,714.7969 214.6875,714.9531 215.1563,715.2031 C215.6406,715.4844 215.8125,715.7031 215.9063,716.1094 C215.9688,716.5156 216,716.6406 216.1406,716.7656 C216.2813,716.9063 216.5156,717.0156 216.7344,717.0156 C217,717.0156 217.2656,716.875 217.4375,716.6563 C217.5469,716.5 217.5781,716.3125 217.5781,715.8906 L217.5781,714.4688 C217.5781,714.0313 217.5625,713.9063 217.4688,713.75 C217.3125,713.4844 217.0313,713.3438 216.7344,713.3438 C216.4375,713.3438 216.2344,713.4375 216.0156,713.75 L215.8438,713.6719 Z " fill="#000000"/><text fill="#000000" font-family="sans-serif" font-size="14" lengthAdjust="spacing" textLength="61" x="227.5" y="722.8467">Semestr</text><line style="stroke:#181818;stroke-width:0.5;" x1="199.5" x2="290.5" y1="734" y2="734"/><text fill="#000000" font-family="sans-serif" font-size="14" lengthAdjust="spacing" textLength="53" x="204.5" y="750.9951">Obdob&#237;</text><text fill="#000000" font-family="sans-serif" font-size="14" lengthAdjust="spacing" textLength="28" x="204.5" y="767.292">Rok</text><line style="stroke:#181818;stroke-width:0.5;" x1="199.5" x2="290.5" y1="774.5938" y2="774.5938"/></g><!--class Schedule--><g id="elem_Schedule"><rect codeLine="40" fill="#F1F1F1" height="48" id="Schedule" rx="2.5" ry="2.5" style="stroke:#181818;stroke-width:0.5;" width="82" x="301" y="560.5"/><ellipse cx="316" cy="576.5" fill="#ADD1B2" rx="11" ry="11" style="stroke:#181818;stroke-width:1.0;"/><path d="M318.3438,572.1719 C317.4063,571.7344 316.8125,571.5938 315.9375,571.5938 C313.3125,571.5938 311.3125,573.6719 311.3125,576.3906 L311.3125,577.5156 C311.3125,580.0938 313.4219,581.9844 316.3125,581.9844 C317.5313,581.9844 318.6875,581.6875 319.4375,581.1406 C320.0156,580.7344 320.3438,580.2813 320.3438,579.8906 C320.3438,579.4375 319.9531,579.0469 319.4844,579.0469 C319.2656,579.0469 319.0625,579.125 318.875,579.3125 C318.4219,579.7969 318.4219,579.7969 318.2344,579.8906 C317.8125,580.1563 317.125,580.2813 316.3594,580.2813 C314.3125,580.2813 313.0156,579.1875 313.0156,577.4844 L313.0156,576.3906 C313.0156,574.6094 314.2656,573.2969 316,573.2969 C316.5781,573.2969 317.1875,573.4531 317.6563,573.7031 C318.1406,573.9844 318.3125,574.2031 318.4063,574.6094 C318.4688,575.0156 318.5,575.1406 318.6406,575.2656 C318.7813,575.4063 319.0156,575.5156 319.2344,575.5156 C319.5,575.5156 319.7656,575.375 319.9375,575.1563 C320.0469,575 320.0781,574.8125 320.0781,574.3906 L320.0781,572.9688 C320.0781,572.5313 320.0625,572.4063 319.9688,572.25 C319.8125,571.9844 319.5313,571.8438 319.2344,571.8438 C318.9375,571.8438 318.7344,571.9375 318.5156,572.25 L318.3438,572.1719 Z " fill="#000000"/><text fill="#000000" font-family="sans-serif" font-size="14" lengthAdjust="spacing" textLength="50" x="330" y="581.3467">Rozvrh</text><line style="stroke:#181818;stroke-width:0.5;" x1="302" x2="382" y1="592.5" y2="592.5"/><line style="stroke:#181818;stroke-width:0.5;" x1="302" x2="382" y1="600.5" y2="600.5"/></g><!--class Harmonogram--><g id="elem_Harmonogram"><rect codeLine="43" fill="#F1F1F1" height="48" id="Harmonogram" rx="2.5" ry="2.5" style="stroke:#181818;stroke-width:0.5;" width="134" x="132" y="560.5"/><ellipse cx="147" cy="576.5" fill="#ADD1B2" rx="11" ry="11" style="stroke:#181818;stroke-width:1.0;"/><path d="M149.3438,572.1719 C148.4063,571.7344 147.8125,571.5938 146.9375,571.5938 C144.3125,571.5938 142.3125,573.6719 142.3125,576.3906 L142.3125,577.5156 C142.3125,580.0938 144.4219,581.9844 147.3125,581.9844 C148.5313,581.9844 149.6875,581.6875 150.4375,581.1406 C151.0156,580.7344 151.3438,580.2813 151.3438,579.8906 C151.3438,579.4375 150.9531,579.0469 150.4844,579.0469 C150.2656,579.0469 150.0625,579.125 149.875,579.3125 C149.4219,579.7969 149.4219,579.7969 149.2344,579.8906 C148.8125,580.1563 148.125,580.2813 147.3594,580.2813 C145.3125,580.2813 144.0156,579.1875 144.0156,577.4844 L144.0156,576.3906 C144.0156,574.6094 145.2656,573.2969 147,573.2969 C147.5781,573.2969 148.1875,573.4531 148.6563,573.7031 C149.1406,573.9844 149.3125,574.2031 149.4063,574.6094 C149.4688,575.0156 149.5,575.1406 149.6406,575.2656 C149.7813,575.4063 150.0156,575.5156 150.2344,575.5156 C150.5,575.5156 150.7656,575.375 150.9375,575.1563 C151.0469,575 151.0781,574.8125 151.0781,574.3906 L151.0781,572.9688 C151.0781,572.5313 151.0625,572.4063 150.9688,572.25 C150.8125,571.9844 150.5313,571.8438 150.2344,571.8438 C149.9375,571.8438 149.7344,571.9375 149.5156,572.25 L149.3438,572.1719 Z " fill="#000000"/><text fill="#000000" font-family="sans-serif" font-size="14" lengthAdjust="spacing" textLength="102" x="161" y="581.3467">Harmonogram</text><line style="stroke:#181818;stroke-width:0.5;" x1="133" x2="265" y1="592.5" y2="592.5"/><line style="stroke:#181818;stroke-width:0.5;" x1="133" x2="265" y1="600.5" y2="600.5"/></g><!--class Subject--><g id="elem_Subject"><rect codeLine="46" fill="#F1F1F1" height="113.1875" id="Subject" rx="2.5" ry="2.5" style="stroke:#181818;stroke-width:0.5;" width="111" x="488.5" y="528"/><ellipse cx="510.7" cy="544" fill="#ADD1B2" rx="11" ry="11" style="stroke:#181818;stroke-width:1.0;"/><path d="M513.0438,539.6719 C512.1063,539.2344 511.5125,539.0938 510.6375,539.0938 C508.0125,539.0938 506.0125,541.1719 506.0125,543.8906 L506.0125,545.0156 C506.0125,547.5938 508.1219,549.4844 511.0125,549.4844 C512.2313,549.4844 513.3875,549.1875 514.1375,548.6406 C514.7156,548.2344 515.0438,547.7813 515.0438,547.3906 C515.0438,546.9375 514.6531,546.5469 514.1844,546.5469 C513.9656,546.5469 513.7625,546.625 513.575,546.8125 C513.1219,547.2969 513.1219,547.2969 512.9344,547.3906 C512.5125,547.6563 511.825,547.7813 511.0594,547.7813 C509.0125,547.7813 507.7156,546.6875 507.7156,544.9844 L507.7156,543.8906 C507.7156,542.1094 508.9656,540.7969 510.7,540.7969 C511.2781,540.7969 511.8875,540.9531 512.3563,541.2031 C512.8406,541.4844 513.0125,541.7031 513.1063,542.1094 C513.1688,542.5156 513.2,542.6406 513.3406,542.7656 C513.4813,542.9063 513.7156,543.0156 513.9344,543.0156 C514.2,543.0156 514.4656,542.875 514.6375,542.6563 C514.7469,542.5 514.7781,542.3125 514.7781,541.8906 L514.7781,540.4688 C514.7781,540.0313 514.7625,539.9063 514.6688,539.75 C514.5125,539.4844 514.2313,539.3438 513.9344,539.3438 C513.6375,539.3438 513.4344,539.4375 513.2156,539.75 L513.0438,539.6719 Z " fill="#000000"/><text fill="#000000" font-family="sans-serif" font-size="14" lengthAdjust="spacing" textLength="63" x="526.3" y="548.8467">P&#345;edm&#283;t</text><line style="stroke:#181818;stroke-width:0.5;" x1="489.5" x2="598.5" y1="560" y2="560"/><text fill="#000000" font-family="sans-serif" font-size="14" lengthAdjust="spacing" textLength="43" x="494.5" y="576.9951">N&#225;zev</text><text fill="#000000" font-family="sans-serif" font-size="14" lengthAdjust="spacing" textLength="28" x="494.5" y="593.292">K&#243;d</text><text fill="#000000" font-family="sans-serif" font-size="14" lengthAdjust="spacing" textLength="61" x="494.5" y="609.5889">Semestr</text><text fill="#000000" font-family="sans-serif" font-size="14" lengthAdjust="spacing" textLength="99" x="494.5" y="625.8857">Po&#269;et Kredit&#367;</text><line style="stroke:#181818;stroke-width:0.5;" x1="489.5" x2="598.5" y1="633.1875" y2="633.1875"/></g><!--class StudyPlan--><g id="elem_StudyPlan"><rect codeLine="53" fill="#F1F1F1" height="48" id="StudyPlan" rx="2.5" ry="2.5" style="stroke:#181818;stroke-width:0.5;" width="222" x="564" y="362.5"/><ellipse cx="579" cy="378.5" fill="#ADD1B2" rx="11" ry="11" style="stroke:#181818;stroke-width:1.0;"/><path d="M581.3438,374.1719 C580.4063,373.7344 579.8125,373.5938 578.9375,373.5938 C576.3125,373.5938 574.3125,375.6719 574.3125,378.3906 L574.3125,379.5156 C574.3125,382.0938 576.4219,383.9844 579.3125,383.9844 C580.5313,383.9844 581.6875,383.6875 582.4375,383.1406 C583.0156,382.7344 583.3438,382.2813 583.3438,381.8906 C583.3438,381.4375 582.9531,381.0469 582.4844,381.0469 C582.2656,381.0469 582.0625,381.125 581.875,381.3125 C581.4219,381.7969 581.4219,381.7969 581.2344,381.8906 C580.8125,382.1563 580.125,382.2813 579.3594,382.2813 C577.3125,382.2813 576.0156,381.1875 576.0156,379.4844 L576.0156,378.3906 C576.0156,376.6094 577.2656,375.2969 579,375.2969 C579.5781,375.2969 580.1875,375.4531 580.6563,375.7031 C581.1406,375.9844 581.3125,376.2031 581.4063,376.6094 C581.4688,377.0156 581.5,377.1406 581.6406,377.2656 C581.7813,377.4063 582.0156,377.5156 582.2344,377.5156 C582.5,377.5156 582.7656,377.375 582.9375,377.1563 C583.0469,377 583.0781,376.8125 583.0781,376.3906 L583.0781,374.9688 C583.0781,374.5313 583.0625,374.4063 582.9688,374.25 C582.8125,373.9844 582.5313,373.8438 582.2344,373.8438 C581.9375,373.8438 581.7344,373.9375 581.5156,374.25 L581.3438,374.1719 Z " fill="#000000"/><text fill="#000000" font-family="sans-serif" font-size="14" lengthAdjust="spacing" textLength="190" x="593" y="383.3467">Doporu&#269;en&#253; pr&#367;b&#283;h studia</text><line style="stroke:#181818;stroke-width:0.5;" x1="565" x2="785" y1="394.5" y2="394.5"/><line style="stroke:#181818;stroke-width:0.5;" x1="565" x2="785" y1="402.5" y2="402.5"/></g><!--class SchUnit--><g id="elem_SchUnit"><rect codeLine="56" fill="#F1F1F1" height="129.4844" id="SchUnit" rx="2.5" ry="2.5" style="stroke:#181818;stroke-width:0.5;" width="151" x="266.5" y="322"/><ellipse cx="281.5" cy="338" fill="#ADD1B2" rx="11" ry="11" style="stroke:#181818;stroke-width:1.0;"/><path d="M283.8438,333.6719 C282.9063,333.2344 282.3125,333.0938 281.4375,333.0938 C278.8125,333.0938 276.8125,335.1719 276.8125,337.8906 L276.8125,339.0156 C276.8125,341.5938 278.9219,343.4844 281.8125,343.4844 C283.0313,343.4844 284.1875,343.1875 284.9375,342.6406 C285.5156,342.2344 285.8438,341.7813 285.8438,341.3906 C285.8438,340.9375 285.4531,340.5469 284.9844,340.5469 C284.7656,340.5469 284.5625,340.625 284.375,340.8125 C283.9219,341.2969 283.9219,341.2969 283.7344,341.3906 C283.3125,341.6563 282.625,341.7813 281.8594,341.7813 C279.8125,341.7813 278.5156,340.6875 278.5156,338.9844 L278.5156,337.8906 C278.5156,336.1094 279.7656,334.7969 281.5,334.7969 C282.0781,334.7969 282.6875,334.9531 283.1563,335.2031 C283.6406,335.4844 283.8125,335.7031 283.9063,336.1094 C283.9688,336.5156 284,336.6406 284.1406,336.7656 C284.2813,336.9063 284.5156,337.0156 284.7344,337.0156 C285,337.0156 285.2656,336.875 285.4375,336.6563 C285.5469,336.5 285.5781,336.3125 285.5781,335.8906 L285.5781,334.4688 C285.5781,334.0313 285.5625,333.9063 285.4688,333.75 C285.3125,333.4844 285.0313,333.3438 284.7344,333.3438 C284.4375,333.3438 284.2344,333.4375 284.0156,333.75 L283.8438,333.6719 Z " fill="#000000"/><text fill="#000000" font-family="sans-serif" font-size="14" lengthAdjust="spacing" textLength="119" x="295.5" y="342.8467">Rozvrhov&#253; l&#237;stek</text><line style="stroke:#181818;stroke-width:0.5;" x1="267.5" x2="416.5" y1="354" y2="354"/><text fill="#000000" font-family="sans-serif" font-size="14" lengthAdjust="spacing" textLength="48" x="272.5" y="370.9951">Datum</text><text fill="#000000" font-family="sans-serif" font-size="14" lengthAdjust="spacing" textLength="76" x="272.5" y="387.292">Opakov&#225;n&#237;</text><text fill="#000000" font-family="sans-serif" font-size="14" lengthAdjust="spacing" textLength="63" x="272.5" y="403.5889">Kapacita</text><text fill="#000000" font-family="sans-serif" font-size="14" lengthAdjust="spacing" textLength="62" x="272.5" y="419.8857">Vyu&#269;uj&#237;c&#237;</text><text fill="#000000" font-family="sans-serif" font-size="14" lengthAdjust="spacing" textLength="53" x="272.5" y="436.1826">U&#269;ebna</text><line style="stroke:#181818;stroke-width:0.5;" x1="267.5" x2="416.5" y1="443.4844" y2="443.4844"/></g><!--class Place--><g id="elem_Place"><rect codeLine="64" fill="#F1F1F1" height="64.2969" id="Place" rx="2.5" ry="2.5" style="stroke:#181818;stroke-width:0.5;" width="71" x="821.5" y="354.5"/><ellipse cx="836.5" cy="370.5" fill="#ADD1B2" rx="11" ry="11" style="stroke:#181818;stroke-width:1.0;"/><path d="M838.8438,366.1719 C837.9063,365.7344 837.3125,365.5938 836.4375,365.5938 C833.8125,365.5938 831.8125,367.6719 831.8125,370.3906 L831.8125,371.5156 C831.8125,374.0938 833.9219,375.9844 836.8125,375.9844 C838.0313,375.9844 839.1875,375.6875 839.9375,375.1406 C840.5156,374.7344 840.8438,374.2813 840.8438,373.8906 C840.8438,373.4375 840.4531,373.0469 839.9844,373.0469 C839.7656,373.0469 839.5625,373.125 839.375,373.3125 C838.9219,373.7969 838.9219,373.7969 838.7344,373.8906 C838.3125,374.1563 837.625,374.2813 836.8594,374.2813 C834.8125,374.2813 833.5156,373.1875 833.5156,371.4844 L833.5156,370.3906 C833.5156,368.6094 834.7656,367.2969 836.5,367.2969 C837.0781,367.2969 837.6875,367.4531 838.1563,367.7031 C838.6406,367.9844 838.8125,368.2031 838.9063,368.6094 C838.9688,369.0156 839,369.1406 839.1406,369.2656 C839.2813,369.4063 839.5156,369.5156 839.7344,369.5156 C840,369.5156 840.2656,369.375 840.4375,369.1563 C840.5469,369 840.5781,368.8125 840.5781,368.3906 L840.5781,366.9688 C840.5781,366.5313 840.5625,366.4063 840.4688,366.25 C840.3125,365.9844 840.0313,365.8438 839.7344,365.8438 C839.4375,365.8438 839.2344,365.9375 839.0156,366.25 L838.8438,366.1719 Z " fill="#000000"/><text fill="#000000" font-family="sans-serif" font-size="14" lengthAdjust="spacing" textLength="39" x="850.5" y="375.3467">M&#237;sto</text><line style="stroke:#181818;stroke-width:0.5;" x1="822.5" x2="891.5" y1="386.5" y2="386.5"/><text fill="#000000" font-family="sans-serif" font-size="14" lengthAdjust="spacing" textLength="49" x="827.5" y="403.4951">Adresa</text><line style="stroke:#181818;stroke-width:0.5;" x1="822.5" x2="891.5" y1="410.7969" y2="410.7969"/></g><!--class Classroom--><g id="elem_Classroom"><rect codeLine="68" fill="#F1F1F1" height="64.2969" id="Classroom" rx="2.5" ry="2.5" style="stroke:#181818;stroke-width:0.5;" width="85" x="762.5" y="181"/><ellipse cx="777.5" cy="197" fill="#ADD1B2" rx="11" ry="11" style="stroke:#181818;stroke-width:1.0;"/><path d="M779.8438,192.6719 C778.9063,192.2344 778.3125,192.0938 777.4375,192.0938 C774.8125,192.0938 772.8125,194.1719 772.8125,196.8906 L772.8125,198.0156 C772.8125,200.5938 774.9219,202.4844 777.8125,202.4844 C779.0313,202.4844 780.1875,202.1875 780.9375,201.6406 C781.5156,201.2344 781.8438,200.7813 781.8438,200.3906 C781.8438,199.9375 781.4531,199.5469 780.9844,199.5469 C780.7656,199.5469 780.5625,199.625 780.375,199.8125 C779.9219,200.2969 779.9219,200.2969 779.7344,200.3906 C779.3125,200.6563 778.625,200.7813 777.8594,200.7813 C775.8125,200.7813 774.5156,199.6875 774.5156,197.9844 L774.5156,196.8906 C774.5156,195.1094 775.7656,193.7969 777.5,193.7969 C778.0781,193.7969 778.6875,193.9531 779.1563,194.2031 C779.6406,194.4844 779.8125,194.7031 779.9063,195.1094 C779.9688,195.5156 780,195.6406 780.1406,195.7656 C780.2813,195.9063 780.5156,196.0156 780.7344,196.0156 C781,196.0156 781.2656,195.875 781.4375,195.6563 C781.5469,195.5 781.5781,195.3125 781.5781,194.8906 L781.5781,193.4688 C781.5781,193.0313 781.5625,192.9063 781.4688,192.75 C781.3125,192.4844 781.0313,192.3438 780.7344,192.3438 C780.4375,192.3438 780.2344,192.4375 780.0156,192.75 L779.8438,192.6719 Z " fill="#000000"/><text fill="#000000" font-family="sans-serif" font-size="14" lengthAdjust="spacing" textLength="53" x="791.5" y="201.8467">U&#269;ebna</text><line style="stroke:#181818;stroke-width:0.5;" x1="763.5" x2="846.5" y1="213" y2="213"/><text fill="#000000" font-family="sans-serif" font-size="14" lengthAdjust="spacing" textLength="63" x="768.5" y="229.9951">Kapacita</text><line style="stroke:#181818;stroke-width:0.5;" x1="763.5" x2="846.5" y1="237.2969" y2="237.2969"/></g><!--reverse link User to Student--><g id="link_User_Student"><path codeLine="74" d="M346.33,133.801 C332.2,150.213 317.815,166.919 305.989,180.654 " fill="none" id="User-backto-Student" style="stroke:#181818;stroke-width:1.0;"/><polygon fill="none" points="341.077,129.175,359.431,118.586,351.686,138.31,341.077,129.175" style="stroke:#181818;stroke-width:1.0;"/></g><!--reverse link User to Teacher--><g id="link_User_Teacher"><path codeLine="75" d="M406,140.469 C406,158.153 406,175.666 406,188.938 " fill="none" id="User-backto-Teacher" style="stroke:#181818;stroke-width:1.0;"/><polygon fill="none" points="399,140.263,406,120.263,413,140.263,399,140.263" style="stroke:#181818;stroke-width:1.0;"/></g><!--reverse link User to SchManager--><g id="link_User_SchManager"><path codeLine="77" d="M468.391,118.633 C496.293,142.842 527.699,170.092 549.347,188.875 " fill="none" id="User-backto-SchManager" style="stroke:#181818;stroke-width:1.0;"/><polygon fill="none" points="463.422,123.59,452.903,105.195,472.597,113.015,463.422,123.59" style="stroke:#181818;stroke-width:1.0;"/></g><!--link Classroom to Place--><g id="link_Classroom_Place"><path codeLine="79" d="M814.417,245.057 C823.812,276.042 838.164,323.379 847.566,354.384 " fill="none" id="Classroom-Place" style="stroke:#181818;stroke-width:1.0;"/><polygon fill="#000000" points="833.4508,288.3513,833.6387,278.8426,828.0138,280.5481,833.4508,288.3513" style="stroke:#000000;stroke-width:1.0;"/><text fill="#000000" font-family="sans-serif" font-size="13" lengthAdjust="spacing" textLength="69" x="841" y="288.0669">Nach&#225;z&#237; se</text><text fill="#000000" font-family="sans-serif" font-size="13" lengthAdjust="spacing" textLength="23" x="790.9874" y="265.2656">0..*</text><text fill="#000000" font-family="sans-serif" font-size="13" lengthAdjust="spacing" textLength="8" x="836.7952" y="343.2632">1</text></g><!--link SchUnit to Subject--><g id="link_SchUnit_Subject"><path codeLine="81" d="M407.584,451.136 C433.619,476.398 463.249,505.148 488.228,529.385 " fill="none" id="SchUnit-Subject" style="stroke:#181818;stroke-width:1.0;"/><polygon fill="#000000" points="464.5884,493.0483,460.1435,484.6403,456.0503,488.8588,464.5884,493.0483" style="stroke:#000000;stroke-width:1.0;"/><text fill="#000000" font-family="sans-serif" font-size="13" lengthAdjust="spacing" textLength="60" x="470" y="494.0669">Rozvr&#382;en</text><text fill="#000000" font-family="sans-serif" font-size="13" lengthAdjust="spacing" textLength="23" x="390.8375" y="471.5233">0..*</text><text fill="#000000" font-family="sans-serif" font-size="13" lengthAdjust="spacing" textLength="8" x="472.5697" y="518.4258">1</text></g><!--link SchUnit to SchUnit--><g id="link_SchUnit_SchUnit"><path codeLine="83" d="M417.662,367.557 C437.505,368.681 452.5,374.995 452.5,386.5 C452.5,398.005 437.505,404.319 417.662,405.443 " fill="none" id="SchUnit-SchUnit" style="stroke:#181818;stroke-width:1.0;"/><polygon fill="#000000" points="457.7828,391.5584,460.2055,382.3616,454.337,382.694,457.7828,391.5584" style="stroke:#000000;stroke-width:1.0;"/><text fill="#000000" font-family="sans-serif" font-size="13" lengthAdjust="spacing" textLength="68" x="471.5" y="391.0669">Je p&#345;i&#345;azen</text><text fill="#000000" font-family="sans-serif" font-size="13" lengthAdjust="spacing" textLength="8" x="425.5037" y="362.0036">1</text><text fill="#000000" font-family="sans-serif" font-size="13" lengthAdjust="spacing" textLength="8" x="425.5037" y="403.619">1</text></g><!--link Schedule to Semestr--><g id="link_Schedule_Semestr"><path codeLine="85" d="M327.687,608.518 C312.457,633.012 288.076,672.224 269.726,701.7341 " fill="none" id="Schedule-Semestr" style="stroke:#181818;stroke-width:1.0;"/><text fill="#000000" font-family="sans-serif" font-size="13" lengthAdjust="spacing" textLength="8" x="314.9943" y="628.6784">1</text><text fill="#000000" font-family="sans-serif" font-size="13" lengthAdjust="spacing" textLength="8" x="265.1587" y="690.8516">1</text></g><!--link Harmonogram to Semestr--><g id="link_Harmonogram_Semestr"><path codeLine="87" d="M205.787,608.518 C213.01,633.012 224.572,672.224 233.274,701.7341 " fill="none" id="Harmonogram-Semestr" style="stroke:#181818;stroke-width:1.0;"/><text fill="#000000" font-family="sans-serif" font-size="13" lengthAdjust="spacing" textLength="8" x="198.5012" y="628.6784">1</text><text fill="#000000" font-family="sans-serif" font-size="13" lengthAdjust="spacing" textLength="8" x="222.6694" y="690.8516">1</text></g><!--link StudyPlan to Subject--><g id="link_StudyPlan_Subject"><path codeLine="89" d="M659.458,410.753 C640.278,439.451 607.027,489.201 581.119,527.963 " fill="none" id="StudyPlan-Subject" style="stroke:#181818;stroke-width:1.0;"/><text fill="#000000" font-family="sans-serif" font-size="13" lengthAdjust="spacing" textLength="23" x="629.8665" y="430.5759">0..*</text><text fill="#000000" font-family="sans-serif" font-size="13" lengthAdjust="spacing" textLength="23" x="561.4014" y="516.8217">0..*</text></g><!--link Classroom to SchUnit--><g id="link_Classroom_SchUnit"><path codeLine="91" d="M762.272,229.827 C683.807,258.891 515.817,321.117 417.646,357.48 " fill="none" id="Classroom-SchUnit" style="stroke:#181818;stroke-width:1.0;"/><text fill="#000000" font-family="sans-serif" font-size="13" lengthAdjust="spacing" textLength="8" x="746.5327" y="228.4251">1</text><text fill="#000000" font-family="sans-serif" font-size="13" lengthAdjust="spacing" textLength="23" x="425.4074" y="351.2787">0..*</text></g><!--link SchUnit to Schedule--><g id="link_SchUnit_Schedule"><path codeLine="93" d="M342,451.136 C342,488.47 342,533.422 342,560.166 " fill="none" id="SchUnit-Schedule" style="stroke:#181818;stroke-width:1.0;"/><text fill="#000000" font-family="sans-serif" font-size="13" lengthAdjust="spacing" textLength="23" x="317.6703" y="471.5233">0..*</text><text fill="#000000" font-family="sans-serif" font-size="13" lengthAdjust="spacing" textLength="8" x="333.025" y="549.4895">1</text></g><!--link Student to SchUnit--><g id="link_Student_SchUnit"><path codeLine="95" d="M277.015,245.016 C276.979,259.586 278.246,277.007 283,292 C286.22,302.154 290.817,312.301 296.042,321.965 " fill="none" id="Student-SchUnit" style="stroke:#181818;stroke-width:1.0;"/><polygon fill="#000000" points="289.2002,288.4202,289.882,278.9341,284.176,280.345,289.2002,288.4202" style="stroke:#000000;stroke-width:1.0;"/><text fill="#000000" font-family="sans-serif" font-size="13" lengthAdjust="spacing" textLength="62" x="297" y="288.0669">Je zaps&#225;n</text><text fill="#000000" font-family="sans-serif" font-size="13" lengthAdjust="spacing" textLength="23" x="251.2337" y="265.2162">0..*</text><text fill="#000000" font-family="sans-serif" font-size="13" lengthAdjust="spacing" textLength="23" x="266.7575" y="311.1338">0..*</text></g><!--link Teacher to SchUnit--><g id="link_Teacher_SchUnit"><path codeLine="97" d="M397.369,237.129 C389.282,258.798 376.818,292.197 365.762,321.824 " fill="none" id="Teacher-SchUnit" style="stroke:#181818;stroke-width:1.0;"/><polygon fill="#000000" points="385.2518,288.2508,391.1677,280.8042,385.6609,278.7491,385.2518,288.2508" style="stroke:#000000;stroke-width:1.0;"/><text fill="#000000" font-family="sans-serif" font-size="13" lengthAdjust="spacing" textLength="51" x="396" y="288.0669">Vyu&#269;uje</text><text fill="#000000" font-family="sans-serif" font-size="13" lengthAdjust="spacing" textLength="23" x="369.4621" y="256.9216">1..*</text><text fill="#000000" font-family="sans-serif" font-size="13" lengthAdjust="spacing" textLength="23" x="344.1032" y="310.9774">0..*</text></g><!--reverse link SubjectType to SchUnit--><g id="link_SubjectType_SchUnit"><path codeLine="99" d="M236.573,386.5 C246.508,386.5 256.443,386.5 266.379,386.5 " fill="none" id="SubjectType-backto-SchUnit" style="stroke:#181818;stroke-width:1.0;"/><polygon fill="#181818" points="231.377,386.5,240.377,390.5,236.377,386.5,240.377,382.5,231.377,386.5" style="stroke:#181818;stroke-width:1.0;"/><text fill="#000000" font-family="sans-serif" font-size="13" lengthAdjust="spacing" textLength="8" x="238.8953" y="383.0141">1</text></g><!--reverse link SemestrTime to Semestr--><g id="link_SemestrTime_Semestr"><path codeLine="101" d="M168.347,742.5 C178.333,742.5 188.319,742.5 198.306,742.5 " fill="none" id="SemestrTime-backto-Semestr" style="stroke:#181818;stroke-width:1.0;"/><polygon fill="#181818" points="163.125,742.5,172.125,746.5,168.125,742.5,172.125,738.5,163.125,742.5" style="stroke:#181818;stroke-width:1.0;"/><text fill="#000000" font-family="sans-serif" font-size="13" lengthAdjust="spacing" textLength="8" x="170.9525" y="738.8777">1</text></g><!--SRC=[TLJBJjmm5DtxAwwoGQe4wcmHhLH1fGeAHGFJHNTEOZ4cYHtPpaWpj5zG-80Hgrco65Xq3PiaFz8lwRMTp3XjoSgFutlFEJxEphl-WyESQiqqR5O8sTdjFpXdIai1IGVQR10QQwDeOY2Qj2zyHWtB8w0Q9fefW1i2qDpMQvrBa5h6SvmV5_M3a3WuRvVr-hfWebxZxFVFH_A34DS1BaoLCc7S-R5ixX2IkKLEjw1eqjpnljybeyaKMzu4-yrjpWGekPYfgPpL3v39Wclcy1V9z9GAUjKV2RH-p1cICg5AmaHLG7GvBuDoKmavIZDPvIjMyJLB36AOuutoM2hgLRlAA4uFPxovwxHUi8BRdQM5APePdbM5PU7RV8bJ6TThqCW3tUtA-yabBtpvRxpmnJupOmTRxppGWRfApiKiS6RiHFH6iBJAMUZS9weAAUILeiN0K2UfQEvDADWrEgjN2pR3mKdzA_KABGch3w-F6JXHBEMcVGgg7SbIgigPyWobQf_YvduAsjsoRu33-NbEnO34kB-0Psy_oteT4y4zcoDgq4-KNz8CWIjlr0ajQSADlOolS-nRNTVhnErWa5WimcYTsihI5KO2YRVyGwgO_Yk0zfo3kVUZf2mSTDFBHclxoCOifuPBCNXcxgaSVCVaTR4FLhfO3q2Rv1AoRHgztTjx4s5a8Hf57UTzECFJU3CkI_2UaDwa8Rg_o7rmthOl-6f2y6YBx9RsuPX1sIvvkwIB3ThdA8HtAI1XeFwtlxtfW9aVTUG6MaS3WEVqghYEbszYVoh_jWXLBMYfCJ5MKlzFYKQl7kY2vCqDVW2syy5km2rulVsUN_e3]--></g></svg>