<?xml version="1.0" encoding="us-ascii" standalone="no"?><svg xmlns="http://www.w3.org/2000/svg" xmlns:xlink="http://www.w3.org/1999/xlink" contentStyleType="text/css" height="569px" preserveAspectRatio="none" style="width:577px;height:569px;background:#FFFFFF;" version="1.1" viewBox="0 0 577 569" width="577px" zoomAndPan="magnify"><defs/><g><!--cluster Modul rozvrhy--><g id="cluster_Modul rozvrhy"><path d="M116.5,6 L232.5,6 A3.75,3.75 0 0 1 235,8.5 L242,28.2969 L462.5,28.2969 A2.5,2.5 0 0 1 465,30.7969 L465,559.5 A2.5,2.5 0 0 1 462.5,562 L116.5,562 A2.5,2.5 0 0 1 114,559.5 L114,8.5 A2.5,2.5 0 0 1 116.5,6 " fill="none" style="stroke:#000000;stroke-width:1.5;"/><line style="stroke:#000000;stroke-width:1.5;" x1="114" x2="242" y1="28.2969" y2="28.2969"/><text fill="#000000" font-family="sans-serif" font-size="14" font-weight="bold" lengthAdjust="spacing" textLength="115" x="118" y="20.9951">Modul rozvrhy</text></g><!--cluster Harmonogram--><g id="cluster_Harmonogram"><path d="M140.5,49 L256.5,49 A3.75,3.75 0 0 1 259,51.5 L266,71.2969 L438.5,71.2969 A2.5,2.5 0 0 1 441,73.7969 L441,317.5 A2.5,2.5 0 0 1 438.5,320 L140.5,320 A2.5,2.5 0 0 1 138,317.5 L138,51.5 A2.5,2.5 0 0 1 140.5,49 " fill="none" style="stroke:#000000;stroke-width:1.5;"/><line style="stroke:#000000;stroke-width:1.5;" x1="138" x2="266" y1="71.2969" y2="71.2969"/><text fill="#000000" font-family="sans-serif" font-size="14" font-weight="bold" lengthAdjust="spacing" textLength="115" x="142" y="63.9951">Harmonogram</text></g><!--cluster M?j rozvrh--><g id="cluster_M&#367;j rozvrh"><path d="M155,344 L242,344 A3.75,3.75 0 0 1 244.5,346.5 L251.5,366.2969 L424,366.2969 A2.5,2.5 0 0 1 426.5,368.7969 L426.5,535.5 A2.5,2.5 0 0 1 424,538 L155,538 A2.5,2.5 0 0 1 152.5,535.5 L152.5,346.5 A2.5,2.5 0 0 1 155,344 " fill="none" style="stroke:#000000;stroke-width:1.5;"/><line style="stroke:#000000;stroke-width:1.5;" x1="152.5" x2="251.5" y1="366.2969" y2="366.2969"/><text fill="#000000" font-family="sans-serif" font-size="14" font-weight="bold" lengthAdjust="spacing" textLength="86" x="156.5" y="358.9951">M&#367;j rozvrh</text></g><g id="elem_UC1"><ellipse cx="289.4233" cy="193.9847" fill="#F1F1F1" rx="135.4233" ry="29.4847" style="stroke:#181818;stroke-width:0.5;"/><text fill="#000000" font-family="sans-serif" font-size="14" lengthAdjust="spacing" textLength="240" x="169.4233" y="196.8313">Vytvo&#345;en&#237; nov&#233;ho harmonogramu</text></g><g id="elem_UC2"><ellipse cx="289.3371" cy="281.1674" fill="#F1F1F1" rx="101.3371" ry="22.6674" style="stroke:#181818;stroke-width:0.5;"/><text fill="#000000" font-family="sans-serif" font-size="14" lengthAdjust="spacing" textLength="167" x="205.8371" y="284.0141">Editace harmonogramu</text></g><g id="elem_UC7"><ellipse cx="289.3371" cy="107.1674" fill="#F1F1F1" rx="101.3371" ry="22.6674" style="stroke:#181818;stroke-width:0.5;"/><text fill="#000000" font-family="sans-serif" font-size="14" lengthAdjust="spacing" textLength="167" x="205.8371" y="110.0141">Zobrazit harmonogram</text></g><g id="elem_UCMR1"><ellipse cx="289.4455" cy="398.1891" fill="#F1F1F1" rx="81.4455" ry="18.6891" style="stroke:#181818;stroke-width:0.5;"/><text fill="#000000" font-family="sans-serif" font-size="14" lengthAdjust="spacing" textLength="122" x="227.3109" y="401.409">Zru&#353;it moj&#237; v&#253;uku</text></g><g id="elem_UCMR2"><ellipse cx="289.741" cy="495.1482" fill="#F1F1F1" rx="121.241" ry="26.6482" style="stroke:#181818;stroke-width:0.5;"/><text fill="#000000" font-family="sans-serif" font-size="14" lengthAdjust="spacing" textLength="210" x="184.741" y="497.9949">Upozornit na zm&#283;nu ve v&#253;uce</text></g><!--entity D?kan?t--><g id="elem_D&#283;kan&#225;t"><ellipse cx="36.5" cy="164.5" fill="#F1F1F1" rx="8" ry="8" style="stroke:#181818;stroke-width:0.5;"/><path d="M36.5,172.5 L36.5,199.5 M23.5,180.5 L49.5,180.5 M36.5,199.5 L23.5,214.5 M36.5,199.5 L49.5,214.5 " fill="none" style="stroke:#181818;stroke-width:0.5;"/><text fill="#000000" font-family="sans-serif" font-size="14" lengthAdjust="spacing" textLength="61" x="6" y="228.9951">D&#283;kan&#225;t</text></g><!--entity Student--><g id="elem_Student"><ellipse cx="541" cy="228.5" fill="#F1F1F1" rx="8" ry="8" style="stroke:#181818;stroke-width:0.5;"/><path d="M541,236.5 L541,263.5 M528,244.5 L554,244.5 M541,263.5 L528,278.5 M541,263.5 L554,278.5 " fill="none" style="stroke:#181818;stroke-width:0.5;"/><text fill="#000000" font-family="sans-serif" font-size="14" lengthAdjust="spacing" textLength="58" x="512" y="292.9951">Student</text></g><!--entity U?itel--><g id="elem_U&#269;itel"><ellipse cx="36.5" cy="368.5" fill="#F1F1F1" rx="8" ry="8" style="stroke:#181818;stroke-width:0.5;"/><path d="M36.5,376.5 L36.5,403.5 M23.5,384.5 L49.5,384.5 M36.5,403.5 L23.5,418.5 M36.5,403.5 L49.5,418.5 " fill="none" style="stroke:#181818;stroke-width:0.5;"/><text fill="#000000" font-family="sans-serif" font-size="14" lengthAdjust="spacing" textLength="41" x="16" y="432.9951">U&#269;itel</text></g><!--link D?kan?t to UC1--><g id="link_D&#283;kan&#225;t_UC1"><path d="M67.2787,194 C88.1472,194 117.71,194 148.452,194 " fill="none" id="D&#283;kan&#225;t-to-UC1" style="stroke:#181818;stroke-width:1.0;"/><polygon fill="#181818" points="153.798,194,144.798,190,148.798,194,144.798,198,153.798,194" style="stroke:#181818;stroke-width:1.0;"/></g><!--link D?kan?t to UC2--><g id="link_D&#283;kan&#225;t_UC2"><path d="M67.0483,217.973 C78.6161,226.337 92.3675,235.098 106,241 C134.701,253.425 167.672,262.165 197.625,268.233 " fill="none" id="D&#283;kan&#225;t-to-UC2" style="stroke:#181818;stroke-width:1.0;"/><polygon fill="#181818" points="202.791,269.26,194.7429,263.583,197.8868,268.2857,193.1841,271.4297,202.791,269.26" style="stroke:#181818;stroke-width:1.0;"/></g><!--link D?kan?t to UC7--><g id="link_D&#283;kan&#225;t_UC7"><path d="M67.0483,170.027 C78.6161,161.663 92.3675,152.902 106,147 C134.701,134.575 167.672,125.835 197.625,119.767 " fill="none" id="D&#283;kan&#225;t-to-UC7" style="stroke:#181818;stroke-width:1.0;"/><polygon fill="#181818" points="202.791,118.74,193.1841,116.5703,197.8868,119.7143,194.7429,124.417,202.791,118.74" style="stroke:#181818;stroke-width:1.0;"/></g><!--link U?itel to UCMR1--><g id="link_U&#269;itel_UCMR1"><path d="M57.1955,398 C88.3195,398 150.698,398 202.839,398 " fill="none" id="U&#269;itel-to-UCMR1" style="stroke:#181818;stroke-width:1.0;"/><polygon fill="#181818" points="207.852,398,198.852,394,202.852,398,198.852,402,207.852,398" style="stroke:#181818;stroke-width:1.0;"/></g><!--reverse link UCMR2 to Student--><g id="link_UCMR2_Student"><path d="M392.666,477.943 C421.521,468.909 451.012,455.101 473,434 C511.451,397.1 528.1,335.838 535.121,296.196 " fill="none" id="UCMR2-backto-Student" style="stroke:#181818;stroke-width:1.0;"/><polygon fill="#181818" points="387.666,479.4633,397.4403,480.6728,392.4499,478.0091,395.1136,473.0187,387.666,479.4633" style="stroke:#181818;stroke-width:1.0;"/></g><!--reverse link UC7 to Student--><g id="link_UC7_Student"><path d="M392.241,114.399 C420.351,120.236 449.544,130.193 473,147 C498.067,164.962 515.493,195.488 526.277,219.987 " fill="none" id="UC7-backto-Student" style="stroke:#181818;stroke-width:1.0;"/><polygon fill="#181818" points="387.006,113.356,395.0506,119.038,391.9096,114.3333,396.6142,111.1923,387.006,113.356" style="stroke:#181818;stroke-width:1.0;"/></g><!--reverse link UCMR2 to UCMR1--><g id="link_UCMR2_UCMR1"><path d="M289.5,463.383 C289.5,447.987 289.5,429.997 289.5,416.789 " fill="none" id="UCMR2-backto-UCMR1" style="stroke:#181818;stroke-width:1.0;stroke-dasharray:7.0,7.0;"/><polygon fill="#181818" points="289.5,468.494,293.5,459.494,289.5,463.494,285.5,459.494,289.5,468.494" style="stroke:#181818;stroke-width:1.0;"/><text fill="#000000" font-family="sans-serif" font-size="13" lengthAdjust="spacing" textLength="68" x="244" y="447.0669">&#171;includes&#187;</text></g><!--SRC=[RP6nJiCm48PtFyMfUogHfHAAiW0IIoK42aCtuvZ6JUAhd7Ea1lKHU03KgIC3uWcOahmN9WqfJHaytDttt_tdo-Gp0I4OjKm8OcMa88MQCIu83LmtkvJhUazz_40sbfeOMtEHygM4oHnZcu71gZJ9PW8l362etNAJeyQbuVcX0c0BANZXQeyRAh5zaxh-08rb_PuW94VUJe0N45rTdAfkOaLSoFz8_vHSu9FXbQA_Q4_E7BbrxsxOeVrSzIkS-LmOs-vTcnnNpcbPVzdqT-ByVkGkMcE5HZjQSwZoPgSjbB8J2Jc8_6xybh7XSy7pmcxNSSO_oynOrBmgabaV_tXWNLS8FEzu7qUE4mw5QURkFJq8VRY4802bHUQO0iBm6m00]--></g></svg>