<?xml version="1.0" encoding="us-ascii" standalone="no"?><svg xmlns="http://www.w3.org/2000/svg" xmlns:xlink="http://www.w3.org/1999/xlink" contentStyleType="text/css" height="590px" preserveAspectRatio="none" style="width:793px;height:590px;background:#FFFFFF;" version="1.1" viewBox="0 0 793 590" width="793px" zoomAndPan="magnify"><defs/><g><!--cluster Modul rozvrhy--><g id="cluster_Modul rozvrhy"><path d="M113.5,6 L229.5,6 A3.75,3.75 0 0 1 232,8.5 L239,28.2969 L675.5,28.2969 A2.5,2.5 0 0 1 678,30.7969 L678,580.5 A2.5,2.5 0 0 1 675.5,583 L113.5,583 A2.5,2.5 0 0 1 111,580.5 L111,8.5 A2.5,2.5 0 0 1 113.5,6 " fill="none" style="stroke:#000000;stroke-width:1.5;"/><line style="stroke:#000000;stroke-width:1.5;" x1="111" x2="239" y1="28.2969" y2="28.2969"/><text fill="#000000" font-family="sans-serif" font-size="14" font-weight="bold" lengthAdjust="spacing" textLength="115" x="115" y="20.9951">Modul rozvrhy</text></g><!--cluster P?edm?ty--><g id="cluster_P&#345;edm&#283;ty"><path d="M137.5,49 L215.5,49 A3.75,3.75 0 0 1 218,51.5 L225,71.2969 L651.5,71.2969 A2.5,2.5 0 0 1 654,73.7969 L654,556.5 A2.5,2.5 0 0 1 651.5,559 L137.5,559 A2.5,2.5 0 0 1 135,556.5 L135,51.5 A2.5,2.5 0 0 1 137.5,49 " fill="none" style="stroke:#000000;stroke-width:1.5;"/><line style="stroke:#000000;stroke-width:1.5;" x1="135" x2="225" y1="71.2969" y2="71.2969"/><text fill="#000000" font-family="sans-serif" font-size="14" font-weight="bold" lengthAdjust="spacing" textLength="77" x="139" y="63.9951">P&#345;edm&#283;ty</text></g><g id="elem_UCP1"><ellipse cx="394.4278" cy="360.9856" fill="#F1F1F1" rx="100.4278" ry="22.4856" style="stroke:#181818;stroke-width:0.5;"/><text fill="#000000" font-family="sans-serif" font-size="14" lengthAdjust="spacing" textLength="165" x="311.9278" y="363.8322">Vytvo&#345;it nov&#253; p&#345;edm&#283;t</text></g><g id="elem_UCP2"><ellipse cx="394.5183" cy="109.0037" fill="#F1F1F1" rx="110.5183" ry="24.5037" style="stroke:#181818;stroke-width:0.5;"/><text fill="#000000" font-family="sans-serif" font-size="14" lengthAdjust="spacing" textLength="187" x="301.0183" y="111.8503">Upravit existuj&#237;c&#237; p&#345;edm&#283;t</text></g><g id="elem_UCP3"><ellipse cx="394.4443" cy="443.1889" fill="#F1F1F1" rx="111.4443" ry="24.6889" style="stroke:#181818;stroke-width:0.5;"/><text fill="#000000" font-family="sans-serif" font-size="14" lengthAdjust="spacing" textLength="189" x="299.9443" y="446.0355">Smazat existuj&#237;c&#237; p&#345;edm&#283;t</text></g><g id="elem_UCP4"><ellipse cx="394.3518" cy="523.0704" fill="#F1F1F1" rx="88.3518" ry="20.0704" style="stroke:#181818;stroke-width:0.5;"/><text fill="#000000" font-family="sans-serif" font-size="14" lengthAdjust="spacing" textLength="138" x="325.3518" y="525.917">Zobrazit p&#345;edm&#283;ty</text></g><g id="elem_UCP5"><ellipse cx="394.4765" cy="236.0953" fill="#F1F1F1" rx="243.4765" ry="51.0953" style="stroke:#181818;stroke-width:0.5;"/><text fill="#000000" font-family="sans-serif" font-size="14" lengthAdjust="spacing" textLength="462" x="163.4765" y="238.942">Specifikovat p&#345;&#237;slu&#353;nost do program&#367;, prerekvizity a korekvizity</text></g><!--entity D?kan?t--><g id="elem_D&#283;kan&#225;t"><ellipse cx="755.5" cy="331.5" fill="#F1F1F1" rx="8" ry="8" style="stroke:#181818;stroke-width:0.5;"/><path d="M755.5,339.5 L755.5,366.5 M742.5,347.5 L768.5,347.5 M755.5,366.5 L742.5,381.5 M755.5,366.5 L768.5,381.5 " fill="none" style="stroke:#181818;stroke-width:0.5;"/><text fill="#000000" font-family="sans-serif" font-size="14" lengthAdjust="spacing" textLength="61" x="725" y="395.9951">D&#283;kan&#225;t</text></g><!--entity Student--><g id="elem_Student"><ellipse cx="35" cy="493.5" fill="#F1F1F1" rx="8" ry="8" style="stroke:#181818;stroke-width:0.5;"/><path d="M35,501.5 L35,528.5 M22,509.5 L48,509.5 M35,528.5 L22,543.5 M35,528.5 L48,543.5 " fill="none" style="stroke:#181818;stroke-width:0.5;"/><text fill="#000000" font-family="sans-serif" font-size="14" lengthAdjust="spacing" textLength="58" x="6" y="557.9951">Student</text></g><!--link UCP1 to UCP5--><g id="link_UCP1_UCP5"><path d="M394.5,338.363 C394.5,325.42 394.5,308.563 394.5,292.275 " fill="none" id="UCP1-to-UCP5" style="stroke:#181818;stroke-width:1.0;stroke-dasharray:7.0,7.0;"/><polygon fill="#181818" points="394.5,287.243,390.5,296.243,394.5,292.243,398.5,296.243,394.5,287.243" style="stroke:#181818;stroke-width:1.0;"/><text fill="#000000" font-family="sans-serif" font-size="13" lengthAdjust="spacing" textLength="68" x="349" y="317.3169">&#171;includes&#187;</text></g><!--reverse link UCP1 to D?kan?t--><g id="link_UCP1_D&#283;kan&#225;t"><path d="M500.047,361 C576.798,361 675.835,361 724.625,361 " fill="none" id="UCP1-backto-D&#283;kan&#225;t" style="stroke:#181818;stroke-width:1.0;"/><polygon fill="#181818" points="495.025,361,504.025,365,500.025,361,504.025,357,495.025,361" style="stroke:#181818;stroke-width:1.0;"/></g><!--reverse link UCP2 to D?kan?t--><g id="link_UCP2_D&#283;kan&#225;t"><path d="M509.458,106.065 C568.415,110.371 637.905,125.307 686,167 C731.612,206.54 746.854,278.421 751.947,322.711 " fill="none" id="UCP2-backto-D&#283;kan&#225;t" style="stroke:#181818;stroke-width:1.0;"/><polygon fill="#181818" points="504.15,105.704,512.8585,110.3042,509.1385,106.0426,513.4002,102.3226,504.15,105.704" style="stroke:#181818;stroke-width:1.0;"/></g><!--reverse link UCP3 to D?kan?t--><g id="link_UCP3_D&#283;kan&#225;t"><path d="M508.325,436.823 C563.138,431.292 629.259,420.82 686,401 C699.391,396.322 713.095,388.934 724.693,381.772 " fill="none" id="UCP3-backto-D&#283;kan&#225;t" style="stroke:#181818;stroke-width:1.0;"/><polygon fill="#181818" points="503.057,437.343,512.4066,440.439,508.0328,436.8516,511.6203,432.4778,503.057,437.343" style="stroke:#181818;stroke-width:1.0;"/></g><!--reverse link UCP4 to D?kan?t--><g id="link_UCP4_D&#283;kan&#225;t"><path d="M480.859,531.2813 C542.882,532.9616 626.103,525.8093 686,485 C715.573,464.851 733.657,427.55 743.76,399.102 " fill="none" id="UCP4-backto-D&#283;kan&#225;t" style="stroke:#181818;stroke-width:1.0;"/><polygon fill="#181818" points="475.68,531.1192,484.5511,535.3975,480.6776,531.2749,484.8002,527.4014,475.68,531.1192" style="stroke:#181818;stroke-width:1.0;"/></g><!--reverse link UCP5 to D?kan?t--><g id="link_UCP5_D&#283;kan&#225;t"><path d="M558.502,276.119 C600.749,288.56 645.684,303.641 686,321 C699.281,326.719 713.191,334.475 724.98,341.636 " fill="none" id="UCP5-backto-D&#283;kan&#225;t" style="stroke:#181818;stroke-width:1.0;"/><polygon fill="#181818" points="553.63,274.693,561.1443,281.0598,558.4287,276.0973,563.3912,273.3818,553.63,274.693" style="stroke:#181818;stroke-width:1.0;"/></g><!--reverse link UCP5 to UCP2--><g id="link_UCP5_UCP2"><path d="M394.5,179.306 C394.5,163.288 394.5,146.684 394.5,133.637 " fill="none" id="UCP5-backto-UCP2" style="stroke:#181818;stroke-width:1.0;stroke-dasharray:7.0,7.0;"/><polygon fill="#181818" points="394.5,184.71,398.5,175.71,394.5,179.71,390.5,175.71,394.5,184.71" style="stroke:#181818;stroke-width:1.0;"/><text fill="#000000" font-family="sans-serif" font-size="13" lengthAdjust="spacing" textLength="68" x="349" y="163.8169">&#171;includes&#187;</text></g><!--link Student to UCP4--><g id="link_Student_UCP4"><path d="M64.0524,523 C114.386,523 222.109,523 300.718,523 " fill="none" id="Student-to-UCP4" style="stroke:#181818;stroke-width:1.0;"/><polygon fill="#181818" points="305.853,523,296.853,519,300.853,523,296.853,527,305.853,523" style="stroke:#181818;stroke-width:1.0;"/></g><!--SRC=[XPAnJiCm48PtFyMfCwa4JHTKTO4LAL9L1hR3SLkJr1VPJaI2-Y1Lfpv0n1CmfNalt91Kf15Yy_t-_j_s-MAnic09j5nlB8HI2subASQGMzBmU3f4gAgZRUk5JKEXB6C9yWZN0aPF5AOnQ2eolSb7yC40WdOlgFSYt9uEDczaWDG8ZiQPddERKRsN5XHbrHSa7Ja2DB1y26xx_3BHc3bQl4jZqxUgv5KvDDtrJOij5lYVPzBtlD2hniATT07pZlIlqXF1vKf6b653LwM9q_geoBWs4YIQrXgtzUUDMmejeaows1mG8hfKNVJKHU_OZh7pos4yRpIuXzaCfEAnQxc1-RpTdddUhsyvFtieJOQIFvIcLz9Fs3Xs8_7t7Te90Czh4FyR]--></g></svg>