<?xml version="1.0" encoding="us-ascii" standalone="no"?><svg xmlns="http://www.w3.org/2000/svg" xmlns:xlink="http://www.w3.org/1999/xlink" contentStyleType="text/css" height="343px" preserveAspectRatio="none" style="width:617px;height:343px;background:#FFFFFF;" version="1.1" viewBox="0 0 617 343" width="617px" zoomAndPan="magnify"><defs/><g><!--cluster Modul rozvrhy--><g id="cluster_Modul rozvrhy"><path d="M86.5,6 L202.5,6 A3.75,3.75 0 0 1 205,8.5 L212,28.2969 L456.5,28.2969 A2.5,2.5 0 0 1 459,30.7969 L459,304.5 A2.5,2.5 0 0 1 456.5,307 L86.5,307 A2.5,2.5 0 0 1 84,304.5 L84,8.5 A2.5,2.5 0 0 1 86.5,6 " fill="none" style="stroke:#000000;stroke-width:1.5;"/><line style="stroke:#000000;stroke-width:1.5;" x1="84" x2="212" y1="28.2969" y2="28.2969"/><text fill="#000000" font-family="sans-serif" font-size="14" font-weight="bold" lengthAdjust="spacing" textLength="115" x="88" y="20.9951">Modul rozvrhy</text></g><!--cluster Reporty--><g id="cluster_Reporty"><path d="M110.5,49 L175.5,49 A3.75,3.75 0 0 1 178,51.5 L185,71.2969 L432.5,71.2969 A2.5,2.5 0 0 1 435,73.7969 L435,161.5 A2.5,2.5 0 0 1 432.5,164 L110.5,164 A2.5,2.5 0 0 1 108,161.5 L108,51.5 A2.5,2.5 0 0 1 110.5,49 " fill="none" style="stroke:#000000;stroke-width:1.5;"/><line style="stroke:#000000;stroke-width:1.5;" x1="108" x2="185" y1="71.2969" y2="71.2969"/><text fill="#000000" font-family="sans-serif" font-size="14" font-weight="bold" lengthAdjust="spacing" textLength="64" x="112" y="63.9951">Reporty</text></g><!--cluster Exporty--><g id="cluster_Exporty"><path d="M163,188 L226,188 A3.75,3.75 0 0 1 228.5,190.5 L235.5,210.2969 L380,210.2969 A2.5,2.5 0 0 1 382.5,212.7969 L382.5,280.5 A2.5,2.5 0 0 1 380,283 L163,283 A2.5,2.5 0 0 1 160.5,280.5 L160.5,190.5 A2.5,2.5 0 0 1 163,188 " fill="none" style="stroke:#000000;stroke-width:1.5;"/><line style="stroke:#000000;stroke-width:1.5;" x1="160.5" x2="235.5" y1="210.2969" y2="210.2969"/><text fill="#000000" font-family="sans-serif" font-size="14" font-weight="bold" lengthAdjust="spacing" textLength="62" x="164.5" y="202.9951">Exporty</text></g><g id="elem_UCA1"><ellipse cx="271.3682" cy="115.8736" fill="#F1F1F1" rx="147.3682" ry="31.8736" style="stroke:#181818;stroke-width:0.5;"/><text fill="#000000" font-family="sans-serif" font-size="14" lengthAdjust="spacing" textLength="265" x="138.8682" y="118.7203">Vytvo&#345;en&#237; reportu o vyu&#382;it&#237; m&#237;stnost&#237;</text></g><g id="elem_UCB1"><ellipse cx="271.5118" cy="244.9024" fill="#F1F1F1" rx="95.0118" ry="21.4024" style="stroke:#181818;stroke-width:0.5;"/><text fill="#000000" font-family="sans-serif" font-size="14" lengthAdjust="spacing" textLength="153" x="195.0118" y="247.749">Export sv&#233;ho rozvrhu</text></g><!--entity D?kan?t--><g id="elem_D&#283;kan&#225;t"><ellipse cx="544.5" cy="30.5" fill="#F1F1F1" rx="8" ry="8" style="stroke:#181818;stroke-width:0.5;"/><path d="M544.5,38.5 L544.5,65.5 M531.5,46.5 L557.5,46.5 M544.5,65.5 L531.5,80.5 M544.5,65.5 L557.5,80.5 " fill="none" style="stroke:#181818;stroke-width:0.5;"/><text fill="#000000" font-family="sans-serif" font-size="14" lengthAdjust="spacing" textLength="61" x="514" y="94.9951">D&#283;kan&#225;t</text></g><!--entity RK--><g id="elem_RK"><ellipse cx="544.5" cy="141.5" fill="#F1F1F1" rx="8" ry="8" style="stroke:#181818;stroke-width:0.5;"/><path d="M544.5,149.5 L544.5,176.5 M531.5,157.5 L557.5,157.5 M544.5,176.5 L531.5,191.5 M544.5,176.5 L557.5,191.5 " fill="none" style="stroke:#181818;stroke-width:0.5;"/><text fill="#000000" font-family="sans-serif" font-size="14" lengthAdjust="spacing" textLength="131" x="479" y="205.9951">Rozvrhov&#225; komise</text></g><!--entity Student--><g id="elem_Student"><ellipse cx="35" cy="159.5" fill="#F1F1F1" rx="8" ry="8" style="stroke:#181818;stroke-width:0.5;"/><path d="M35,167.5 L35,194.5 M22,175.5 L48,175.5 M35,194.5 L22,209.5 M35,194.5 L48,209.5 " fill="none" style="stroke:#181818;stroke-width:0.5;"/><text fill="#000000" font-family="sans-serif" font-size="14" lengthAdjust="spacing" textLength="58" x="6" y="223.9951">Student</text></g><!--entity U?itel--><g id="elem_U&#269;itel"><ellipse cx="35" cy="270.5" fill="#F1F1F1" rx="8" ry="8" style="stroke:#181818;stroke-width:0.5;"/><path d="M35,278.5 L35,305.5 M22,286.5 L48,286.5 M35,305.5 L22,320.5 M35,305.5 L48,320.5 " fill="none" style="stroke:#181818;stroke-width:0.5;"/><text fill="#000000" font-family="sans-serif" font-size="14" lengthAdjust="spacing" textLength="41" x="14.5" y="334.9951">U&#269;itel</text></g><!--link Student to UCB1--><g id="link_Student_UCB1"><path d="M64.2862,195.755 C97.7832,203.754 154.781,217.366 200.375,228.254 " fill="none" id="Student-to-UCB1" style="stroke:#181818;stroke-width:1.0;"/><polygon fill="#181818" points="205.311,229.433,197.4864,223.4517,200.4478,228.2715,195.628,231.2328,205.311,229.433" style="stroke:#181818;stroke-width:1.0;"/></g><!--link U?itel to UCB1--><g id="link_U&#269;itel_UCB1"><path d="M55.59,295.4053 C86.9847,288.042 150.089,273.2415 199.833,261.5743 " fill="none" id="U&#269;itel-to-UCB1" style="stroke:#181818;stroke-width:1.0;"/><polygon fill="#181818" points="204.91,260.3837,195.2345,258.5439,200.042,261.5251,197.0608,266.3326,204.91,260.3837" style="stroke:#181818;stroke-width:1.0;"/></g><!--reverse link UCA1 to D?kan?t--><g id="link_UCA1_D&#283;kan&#225;t"><path d="M383.977,92.964 C431.23,83.2 482.509,72.603 513.829,66.131 " fill="none" id="UCA1-backto-D&#283;kan&#225;t" style="stroke:#181818;stroke-width:1.0;"/><polygon fill="#181818" points="378.829,94.028,388.452,96.1249,383.7257,93.0167,386.8339,88.2903,378.829,94.028" style="stroke:#181818;stroke-width:1.0;"/></g><!--reverse link UCA1 to RK--><g id="link_UCA1_RK"><path d="M385.101,138.853 C417.01,145.329 450.664,152.159 478.706,157.85 " fill="none" id="UCA1-backto-RK" style="stroke:#181818;stroke-width:1.0;"/><polygon fill="#181818" points="379.996,137.816,388.0208,143.5259,384.8961,138.8103,389.6117,135.6857,379.996,137.816" style="stroke:#181818;stroke-width:1.0;"/></g><!--SRC=[RP0zRiCm34PtdUA3Tm_PYmBzcu82XOjq5sms5ko8WKG9TOiS8GS8EcNCa2jqKNAlkhRHPkX6FfAF15jw5GZ3cMKjg8oZKWnRfNGfx71_-coqJNkPygpWz-XgZccFXbV6KmRjKSoLMkkoqKj2ziXLQE66nYx3XmAUfbf1QtRI3Gm8dahj-ucNJYAVTsJJ4Mve2M34Bfo_ZFHibOvUBFi-7jOjxcvclM5pONvu-zSyOlYO3ZLFDuN9SJiwDaezIwZ82lByUkIBqzO8jNz0_Qp4LPvVVEGN5VDl]--></g></svg>