<?xml version="1.0" encoding="us-ascii" standalone="no"?><svg xmlns="http://www.w3.org/2000/svg" xmlns:xlink="http://www.w3.org/1999/xlink" contentStyleType="text/css" height="452px" preserveAspectRatio="none" style="width:701px;height:452px;background:#FFFFFF;" version="1.1" viewBox="0 0 701 452" width="701px" zoomAndPan="magnify"><defs/><g><!--cluster Modul rozvrhy--><g id="cluster_Modul rozvrhy"><path d="M171.5,6 L287.5,6 A3.75,3.75 0 0 1 290,8.5 L297,28.2969 L540.5,28.2969 A2.5,2.5 0 0 1 543,30.7969 L543,442.5 A2.5,2.5 0 0 1 540.5,445 L171.5,445 A2.5,2.5 0 0 1 169,442.5 L169,8.5 A2.5,2.5 0 0 1 171.5,6 " fill="none" style="stroke:#000000;stroke-width:1.5;"/><line style="stroke:#000000;stroke-width:1.5;" x1="169" x2="297" y1="28.2969" y2="28.2969"/><text fill="#000000" font-family="sans-serif" font-size="14" font-weight="bold" lengthAdjust="spacing" textLength="115" x="173" y="20.9951">Modul rozvrhy</text></g><!--cluster Zobrazen? rozvrhu--><g id="cluster_Zobrazen&#237; rozvrhu"><path d="M195.5,49 L344.5,49 A3.75,3.75 0 0 1 347,51.5 L354,71.2969 L516.5,71.2969 A2.5,2.5 0 0 1 519,73.7969 L519,418.5 A2.5,2.5 0 0 1 516.5,421 L195.5,421 A2.5,2.5 0 0 1 193,418.5 L193,51.5 A2.5,2.5 0 0 1 195.5,49 " fill="none" style="stroke:#000000;stroke-width:1.5;"/><line style="stroke:#000000;stroke-width:1.5;" x1="193" x2="354" y1="71.2969" y2="71.2969"/><text fill="#000000" font-family="sans-serif" font-size="14" font-weight="bold" lengthAdjust="spacing" textLength="148" x="197" y="63.9951">Zobrazen&#237; rozvrhu</text></g><g id="elem_UCP1"><ellipse cx="355.7877" cy="107.8575" fill="#F1F1F1" rx="107.2877" ry="23.8575" style="stroke:#181818;stroke-width:0.5;"/><text fill="#000000" font-family="sans-serif" font-size="14" lengthAdjust="spacing" textLength="180" x="265.7877" y="110.7042">Zobrazit rovrh p&#345;edm&#283;tu</text></g><g id="elem_UCP3"><ellipse cx="356.212" cy="197.8424" fill="#F1F1F1" rx="139.712" ry="30.3424" style="stroke:#181818;stroke-width:0.5;"/><text fill="#000000" font-family="sans-serif" font-size="14" lengthAdjust="spacing" textLength="249" x="231.712" y="200.6891">Zobrazit rozvrh rozvrhov&#233;ho l&#237;stku</text></g><g id="elem_UCP4"><ellipse cx="355.8886" cy="295.7777" fill="#F1F1F1" rx="146.8886" ry="31.7777" style="stroke:#181818;stroke-width:0.5;"/><text fill="#000000" font-family="sans-serif" font-size="14" lengthAdjust="spacing" textLength="264" x="223.8886" y="298.6244">Zobrazit rozvrh jak&#233;hokoli profesora</text></g><g id="elem_UCP2"><ellipse cx="356.0567" cy="384.0113" fill="#F1F1F1" rx="90.5567" ry="20.5113" style="stroke:#181818;stroke-width:0.5;"/><text fill="#000000" font-family="sans-serif" font-size="14" lengthAdjust="spacing" textLength="143" x="284.5567" y="386.858">Zobrazit sv&#367;j rozvrh</text></g><!--entity Student--><g id="elem_Student"><ellipse cx="77.5" cy="78.5" fill="#F1F1F1" rx="8" ry="8" style="stroke:#181818;stroke-width:0.5;"/><path d="M77.5,86.5 L77.5,113.5 M64.5,94.5 L90.5,94.5 M77.5,113.5 L64.5,128.5 M77.5,113.5 L90.5,128.5 " fill="none" style="stroke:#181818;stroke-width:0.5;"/><text fill="#000000" font-family="sans-serif" font-size="14" lengthAdjust="spacing" textLength="58" x="48.5" y="142.9951">Student</text></g><!--entity SU--><g id="elem_SU"><ellipse cx="77.5" cy="266.5" fill="#F1F1F1" rx="8" ry="8" style="stroke:#181818;stroke-width:0.5;"/><path d="M77.5,274.5 L77.5,301.5 M64.5,282.5 L90.5,282.5 M77.5,301.5 L64.5,316.5 M77.5,301.5 L90.5,316.5 " fill="none" style="stroke:#181818;stroke-width:0.5;"/><text fill="#000000" font-family="sans-serif" font-size="14" lengthAdjust="spacing" textLength="143" x="6" y="330.9951">Student nebo u&#269;itel</text></g><!--entity D?kan?t--><g id="elem_D&#283;kan&#225;t"><ellipse cx="628.5" cy="68.5" fill="#F1F1F1" rx="8" ry="8" style="stroke:#181818;stroke-width:0.5;"/><path d="M628.5,76.5 L628.5,103.5 M615.5,84.5 L641.5,84.5 M628.5,103.5 L615.5,118.5 M628.5,103.5 L641.5,118.5 " fill="none" style="stroke:#181818;stroke-width:0.5;"/><text fill="#000000" font-family="sans-serif" font-size="14" lengthAdjust="spacing" textLength="61" x="598" y="132.9951">D&#283;kan&#225;t</text></g><!--entity RK--><g id="elem_RK"><ellipse cx="628.5" cy="179.5" fill="#F1F1F1" rx="8" ry="8" style="stroke:#181818;stroke-width:0.5;"/><path d="M628.5,187.5 L628.5,214.5 M615.5,195.5 L641.5,195.5 M628.5,214.5 L615.5,229.5 M628.5,214.5 L641.5,229.5 " fill="none" style="stroke:#181818;stroke-width:0.5;"/><text fill="#000000" font-family="sans-serif" font-size="14" lengthAdjust="spacing" textLength="131" x="563" y="243.9951">Rozvrhov&#225; komise</text></g><!--link Student to UCP1--><g id="link_Student_UCP1"><path d="M106.534,108 C138.656,108 193.304,108 243.184,108 " fill="none" id="Student-to-UCP1" style="stroke:#181818;stroke-width:1.0;"/><polygon fill="#181818" points="248.305,108,239.305,104,243.305,108,239.305,112,248.305,108" style="stroke:#181818;stroke-width:1.0;"/></g><!--link SU to UCP2--><g id="link_SU_UCP2"><path d="M135.781,334.169 C144.018,338.625 152.565,342.737 161,346 C195.474,359.337 235.279,368.1784 269.827,373.9456 " fill="none" id="SU-to-UCP2" style="stroke:#181818;stroke-width:1.0;"/><polygon fill="#181818" points="274.885,374.7744,266.6503,369.3716,269.9508,373.9658,265.3566,377.2664,274.885,374.7744" style="stroke:#181818;stroke-width:1.0;"/></g><!--link SU to UCP3--><g id="link_SU_UCP3"><path d="M138.291,257.81 C145.776,253.834 153.455,250.116 161,247 C188.013,235.843 218.224,226.727 246.613,219.516 " fill="none" id="SU-to-UCP3" style="stroke:#181818;stroke-width:1.0;"/><polygon fill="#181818" points="251.521,218.283,241.818,216.594,246.6714,219.5,243.7653,224.3534,251.521,218.283" style="stroke:#181818;stroke-width:1.0;"/></g><!--link SU to UCP4--><g id="link_SU_UCP4"><path d="M149.347,296 C166.093,296 184.586,296 203.412,296 " fill="none" id="SU-to-UCP4" style="stroke:#181818;stroke-width:1.0;"/><polygon fill="#181818" points="208.73,296,199.73,292,203.73,296,199.73,300,208.73,296" style="stroke:#181818;stroke-width:1.0;"/></g><!--reverse link UCP1 to D?kan?t--><g id="link_UCP1_D&#283;kan&#225;t"><path d="M467.523,103.914 C514.951,102.161 566.578,100.252 597.994,99.091 " fill="none" id="UCP1-backto-D&#283;kan&#225;t" style="stroke:#181818;stroke-width:1.0;"/><polygon fill="#181818" points="462.357,104.105,471.4983,107.7706,467.3536,103.9207,471.2035,99.776,462.357,104.105" style="stroke:#181818;stroke-width:1.0;"/></g><!--reverse link UCP4 to RK--><g id="link_UCP4_RK"><path d="M465.241,272.146 C493.497,264.824 523.68,256.015 551,246 C554.878,244.578 558.824,243.025 562.775,241.386 " fill="none" id="UCP4-backto-RK" style="stroke:#181818;stroke-width:1.0;"/><polygon fill="#181818" points="460.358,273.402,470.0707,275.0338,465.2004,272.1564,468.0778,267.286,460.358,273.402" style="stroke:#181818;stroke-width:1.0;"/></g><!--reverse link UCP3 to RK--><g id="link_UCP3_RK"><path d="M498.533,203.756 C520.973,204.668 543.182,205.571 562.682,206.364 " fill="none" id="UCP3-backto-RK" style="stroke:#181818;stroke-width:1.0;"/><polygon fill="#181818" points="493.439,203.548,502.2681,207.9124,498.4348,203.7523,502.5949,199.9191,493.439,203.548" style="stroke:#181818;stroke-width:1.0;"/></g><!--reverse link UCP1 to RK--><g id="link_UCP1_RK"><path d="M455.532,120.584 C486.999,126.876 521.337,136.213 551,150 C562.712,155.443 574.299,162.95 584.777,170.786 " fill="none" id="UCP1-backto-RK" style="stroke:#181818;stroke-width:1.0;"/><polygon fill="#181818" points="450.507,119.6,458.5713,125.254,455.4139,120.5602,460.1077,117.4029,450.507,119.6" style="stroke:#181818;stroke-width:1.0;"/></g><!--SRC=[VP2_Ri8m48TtFyKfUmR-Z5MNTgig8Q8itKno4EEGY-npf5Bn27s0Yecn0-f39BnNa-2WB33vPz_tdK-Nuvg12OpQP0ofCfYmea88cJ0PYDYbMB2_1VuA1Qu8NFEj6FC0f8KeziXhSzIog4ytPKdxocHKrIVGj5CMUtxv9aGf4oqt2C4xfIu7quEV0Nm9WCLG-w2LaNiiwhC7t1K0S1OJQM-8uXPewr1UVZ3TDKTs_K_nos9ob-yQ-gETy3SZoEkpPNrJPu_LhTITfIbNK1fQeoKZ1tT-nxNLvM_hEmpij6KFuY34iE4mVBwE7iL3dexoR9JdGdGaF8NXQFrTeNzgLzq9eppn-Hy0]--></g></svg>